<?xml version="1.0" encoding="UTF-8" standalone="no"?>
<!-- Created with Inkscape (http://www.inkscape.org/) -->

<svg
   xmlns:dc="http://purl.org/dc/elements/1.1/"
   xmlns:cc="http://creativecommons.org/ns#"
   xmlns:rdf="http://www.w3.org/1999/02/22-rdf-syntax-ns#"
   xmlns:svg="http://www.w3.org/2000/svg"
   xmlns="http://www.w3.org/2000/svg"
   xmlns:sodipodi="http://sodipodi.sourceforge.net/DTD/sodipodi-0.dtd"
   xmlns:inkscape="http://www.inkscape.org/namespaces/inkscape"
   width="744.09448819"
   height="1052.3622047"
   id="svg7522"
   version="1.1"
   inkscape:version="0.48.4 r9939"
   sodipodi:docname="bee.svg"
   inkscape:export-filename="C:\Users\Quim\Desktop\bee.png"
   inkscape:export-xdpi="90"
   inkscape:export-ydpi="90">
  <defs
     id="defs7524">
    <filter
       inkscape:collect="always"
       id="filter8123"
       x="-0.16152436"
       width="1.3230487"
       y="-0.34889262"
       height="1.6977852">
      <feGaussianBlur
         inkscape:collect="always"
         stdDeviation="10.383709"
         id="feGaussianBlur8125" />
    </filter>
  </defs>
  <sodipodi:namedview
     id="base"
     pagecolor="#ffffff"
     bordercolor="#666666"
     borderopacity="1.0"
     inkscape:pageopacity="0.0"
     inkscape:pageshadow="2"
     inkscape:zoom="0.7"
     inkscape:cx="39.231659"
     inkscape:cy="620.80244"
     inkscape:document-units="px"
     inkscape:current-layer="g8211"
     showgrid="false"
     inkscape:window-width="1366"
     inkscape:window-height="705"
     inkscape:window-x="-8"
     inkscape:window-y="-8"
     inkscape:window-maximized="1" />
  <metadata
     id="metadata7527">
    <rdf:RDF>
      <cc:Work
         rdf:about="">
        <dc:format>image/svg+xml</dc:format>
        <dc:type
           rdf:resource="http://purl.org/dc/dcmitype/StillImage" />
        <dc:title></dc:title>
      </cc:Work>
    </rdf:RDF>
  </metadata>
  <g
     inkscape:label="Layer 1"
     inkscape:groupmode="layer"
     id="layer1">
    <g
       id="g8181"
       transform="translate(22.857143,-190)">
      <g
         id="g8167">
        <g
           id="g8137"
           transform="matrix(0.84802602,-0.13424937,0.13307617,0.84061516,33.478291,346.65401)">
          <path
             d="m 322.85715,179.50504 c 0,33.92606 -53.08624,61.42857 -118.57143,61.42857 -65.48519,0 -118.571426,-27.50251 -118.571426,-61.42857 0,-33.92607 53.086236,-61.42857 118.571426,-61.42857 65.48519,0 118.57143,27.5025 118.57143,61.42857 z"
             sodipodi:ry="61.42857"
             sodipodi:rx="118.57143"
             sodipodi:cy="179.50504"
             sodipodi:cx="204.28572"
             id="path8139"
             style="fill:#ffffff;fill-opacity:0.73544976;stroke:#000000;stroke-width:2;stroke-miterlimit:4;stroke-opacity:1;stroke-dasharray:none"
             sodipodi:type="arc" />
          <path
             transform="matrix(1.4351852,0,0,0.9,-97.817457,21.093361)"
             d="m 287.14286,175.21933 c 0,19.72446 -34.53803,35.71429 -77.14286,35.71429 -42.60483,0 -77.14286,-15.98983 -77.14286,-35.71429 0,-19.72446 34.53803,-35.71429 77.14286,-35.71429 42.60483,0 77.14286,15.98983 77.14286,35.71429 z"
             sodipodi:ry="35.714287"
             sodipodi:rx="77.14286"
             sodipodi:cy="175.21933"
             sodipodi:cx="210"
             id="path8141"
             style="fill:#5d5e5d;fill-opacity:0.25396824;stroke:none;filter:url(#filter8123)"
             sodipodi:type="arc" />
        </g>
        <g
           id="g8143"
           transform="matrix(0.92961572,0.36853035,-0.36853035,0.92961572,109.05271,136.18351)">
          <path
             sodipodi:type="arc"
             style="fill:#ffffff;fill-opacity:0.73544976;stroke:#000000;stroke-width:2;stroke-miterlimit:4;stroke-opacity:1;stroke-dasharray:none"
             id="path8145"
             sodipodi:cx="204.28572"
             sodipodi:cy="179.50504"
             sodipodi:rx="118.57143"
             sodipodi:ry="61.42857"
             d="m 322.85715,179.50504 c 0,33.92606 -53.08624,61.42857 -118.57143,61.42857 -65.48519,0 -118.571426,-27.50251 -118.571426,-61.42857 0,-33.92607 53.086236,-61.42857 118.571426,-61.42857 65.48519,0 118.57143,27.5025 118.57143,61.42857 z" />
          <path
             sodipodi:type="arc"
             style="fill:#5d5e5d;fill-opacity:0.25396824;stroke:none;filter:url(#filter8123)"
             id="path8147"
             sodipodi:cx="210"
             sodipodi:cy="175.21933"
             sodipodi:rx="77.14286"
             sodipodi:ry="35.714287"
             d="m 287.14286,175.21933 c 0,19.72446 -34.53803,35.71429 -77.14286,35.71429 -42.60483,0 -77.14286,-15.98983 -77.14286,-35.71429 0,-19.72446 34.53803,-35.71429 77.14286,-35.71429 42.60483,0 77.14286,15.98983 77.14286,35.71429 z"
             transform="matrix(1.4351852,0,0,0.9,-97.817457,21.093361)" />
        </g>
        <g
           transform="matrix(-0.92961572,0.36853035,0.36853035,0.92961572,524.33091,141.8978)"
           id="g8149">
          <path
             d="m 322.85715,179.50504 c 0,33.92606 -53.08624,61.42857 -118.57143,61.42857 -65.48519,0 -118.571426,-27.50251 -118.571426,-61.42857 0,-33.92607 53.086236,-61.42857 118.571426,-61.42857 65.48519,0 118.57143,27.5025 118.57143,61.42857 z"
             sodipodi:ry="61.42857"
             sodipodi:rx="118.57143"
             sodipodi:cy="179.50504"
             sodipodi:cx="204.28572"
             id="path8151"
             style="fill:#ffffff;fill-opacity:0.73544976;stroke:#000000;stroke-width:2;stroke-miterlimit:4;stroke-opacity:1;stroke-dasharray:none"
             sodipodi:type="arc" />
          <path
             transform="matrix(1.4351852,0,0,0.9,-97.817457,21.093361)"
             d="m 287.14286,175.21933 c 0,19.72446 -34.53803,35.71429 -77.14286,35.71429 -42.60483,0 -77.14286,-15.98983 -77.14286,-35.71429 0,-19.72446 34.53803,-35.71429 77.14286,-35.71429 42.60483,0 77.14286,15.98983 77.14286,35.71429 z"
             sodipodi:ry="35.714287"
             sodipodi:rx="77.14286"
             sodipodi:cy="175.21933"
             sodipodi:cx="210"
             id="path8153"
             style="fill:#5d5e5d;fill-opacity:0.25396824;stroke:none;filter:url(#filter8123)"
             sodipodi:type="arc" />
        </g>
        <g
           transform="matrix(-0.84802602,-0.13424937,-0.13307617,0.84061516,606.33162,340.93972)"
           id="g8161">
          <path
             sodipodi:type="arc"
             style="fill:#ffffff;fill-opacity:0.73544976;stroke:#000000;stroke-width:2;stroke-miterlimit:4;stroke-opacity:1;stroke-dasharray:none"
             id="path8163"
             sodipodi:cx="204.28572"
             sodipodi:cy="179.50504"
             sodipodi:rx="118.57143"
             sodipodi:ry="61.42857"
             d="m 322.85715,179.50504 c 0,33.92606 -53.08624,61.42857 -118.57143,61.42857 -65.48519,0 -118.571426,-27.50251 -118.571426,-61.42857 0,-33.92607 53.086236,-61.42857 118.571426,-61.42857 65.48519,0 118.57143,27.5025 118.57143,61.42857 z" />
          <path
             sodipodi:type="arc"
             style="fill:#5d5e5d;fill-opacity:0.25396824;stroke:none;filter:url(#filter8123)"
             id="path8165"
             sodipodi:cx="210"
             sodipodi:cy="175.21933"
             sodipodi:rx="77.14286"
             sodipodi:ry="35.714287"
             d="m 287.14286,175.21933 c 0,19.72446 -34.53803,35.71429 -77.14286,35.71429 -42.60483,0 -77.14286,-15.98983 -77.14286,-35.71429 0,-19.72446 34.53803,-35.71429 77.14286,-35.71429 42.60483,0 77.14286,15.98983 77.14286,35.71429 z"
             transform="matrix(1.4351852,0,0,0.9,-97.817457,21.093361)" />
        </g>
      </g>
      <path
         transform="matrix(-0.02519219,-0.30112013,0.25060111,-0.03027072,216.50009,600.15089)"
         inkscape:transform-center-y="6.5427202"
         inkscape:transform-center-x="0.12508899"
         d="M 131.42857,529.50504 68.93041,485.58836 6.4322509,441.67169 75.714286,409.50503 l 69.282034,-32.16665 -6.78388,76.08333 z"
         inkscape:randomized="0"
         inkscape:rounded="0"
         inkscape:flatsided="false"
         sodipodi:arg2="2.1833237"
         sodipodi:arg1="1.1361261"
         sodipodi:r2="44.100998"
         sodipodi:r1="88.201996"
         sodipodi:cy="449.50504"
         sodipodi:cx="94.285713"
         sodipodi:sides="3"
         id="path8093"
         style="fill:#000000;fill-opacity:1;stroke:none"
         sodipodi:type="star" />
      <path
         transform="matrix(1.2888889,0,0,0.96428571,-90.412697,1.6149761)"
         d="m 387.14286,325.21933 c 0,44.18278 -28.78169,80 -64.28571,80 -35.50402,0 -64.28572,-35.81722 -64.28572,-80 0,-44.18278 28.7817,-80 64.28572,-80 35.50402,0 64.28571,35.81722 64.28571,80 z"
         sodipodi:ry="80"
         sodipodi:rx="64.285713"
         sodipodi:cy="325.21933"
         sodipodi:cx="322.85715"
         id="path7530"
         style="fill:#000000;fill-opacity:1;stroke:none"
         sodipodi:type="arc" />
      <path
         transform="translate(2.8571429,-48.571429)"
         d="m 424.28571,489.50504 c 0,65.48519 -45.73091,118.57142 -102.14286,118.57142 -56.41194,0 -102.14286,-53.08623 -102.14286,-118.57142 0,-65.4852 45.73092,-118.57143 102.14286,-118.57143 56.41195,0 102.14286,53.08623 102.14286,118.57143 z"
         sodipodi:ry="118.57143"
         sodipodi:rx="102.14286"
         sodipodi:cy="489.50504"
         sodipodi:cx="322.14285"
         id="path8040"
         style="fill:#000000;fill-opacity:1;stroke:#000000;stroke-width:2;stroke-miterlimit:4;stroke-opacity:1;stroke-dasharray:none"
         sodipodi:type="arc" />
      <path
         inkscape:connector-curvature="0"
         id="path8055"
         d="m 223.79464,455.58482 c 2.67207,22.87788 10.97662,43.67063 23.21875,60.46875 25.16067,4.96039 52.99812,7.75 82.28125,7.75 25.4848,0 49.86006,-2.12645 72.34375,-5.9375 12.2935,-16.19008 20.83464,-36.29058 24.0625,-58.5 -28.01889,6.47476 -59.82067,10.15625 -93.5625,10.15625 -39.82397,0 -76.96599,-5.12943 -108.34375,-13.9375 z"
         style="fill:#ffff00;fill-opacity:1;stroke:#000000;stroke-opacity:1" />
      <path
         inkscape:connector-curvature="0"
         id="path8057"
         d="m 256.38979,354.13375 c -13.4397,14.27733 -23.58574,32.65321 -28.9375,53.4375 30.34716,8.00951 65.76659,12.625 103.59375,12.625 33.42817,0 64.9841,-3.60613 92.8125,-9.96875 -5.0254,-21.2781 -15.0313,-40.16323 -28.4687,-54.875 -20.62962,3.13608 -42.76914,4.84375 -65.7813,4.84375 -25.81573,0 -50.49342,-2.15666 -73.21875,-6.0625 z"
         style="fill:#ffff00;fill-opacity:1;stroke:#000000;stroke-opacity:1" />
      <path
         transform="matrix(0.53589589,0.17094402,-0.15195022,0.47635186,50.276936,78.267779)"
         d="m 587.14288,256.64789 c 0,40.23789 -20.46699,72.85714 -45.71429,72.85714 -25.2473,0 -45.71429,-32.61925 -45.71429,-72.85714 0,-40.23789 20.46699,-72.85714 45.71429,-72.85714 25.2473,0 45.71429,32.61925 45.71429,72.85714 z"
         sodipodi:ry="72.85714"
         sodipodi:rx="45.714287"
         sodipodi:cy="256.64789"
         sodipodi:cx="541.42859"
         id="path8074"
         style="fill:#ffffff;fill-opacity:1;stroke:none"
         sodipodi:type="arc" />
      <path
         inkscape:transform-center-x="34.285714"
         sodipodi:type="arc"
         style="fill:#ffffff;fill-opacity:1;stroke:none"
         id="path8079"
         sodipodi:cx="541.42859"
         sodipodi:cy="256.64789"
         sodipodi:rx="45.714287"
         sodipodi:ry="72.85714"
         d="m 587.14288,256.64789 c 0,40.23789 -20.46699,72.85714 -45.71429,72.85714 -25.2473,0 -45.71429,-32.61925 -45.71429,-72.85714 0,-40.23789 20.46699,-72.85714 45.71429,-72.85714 25.2473,0 45.71429,32.61925 45.71429,72.85714 z"
         transform="matrix(-0.53589589,0.17094402,0.15195022,0.47635186,601.15167,79.696351)" />
      <path
         transform="matrix(0.93227891,0.3617403,-0.3617403,0.93227891,115.42728,-86.495938)"
         d="m 334.28573,265.21933 c 0,8.67876 -13.75126,15.71429 -30.71429,15.71429 -16.96303,0 -30.71428,-7.03553 -30.71428,-15.71429 0,-8.67876 13.75125,-15.71429 30.71428,-15.71429 16.96303,0 30.71429,7.03553 30.71429,15.71429 z"
         sodipodi:ry="15.714286"
         sodipodi:rx="30.714285"
         sodipodi:cy="265.21933"
         sodipodi:cx="303.57144"
         id="path8081"
         style="fill:#000000;fill-opacity:1;stroke:none"
         sodipodi:type="arc" />
      <path
         sodipodi:type="arc"
         style="fill:#000000;fill-opacity:1;stroke:none"
         id="path8083"
         sodipodi:cx="303.57144"
         sodipodi:cy="265.21933"
         sodipodi:rx="30.714285"
         sodipodi:ry="15.714286"
         d="m 334.28573,265.21933 c 0,8.67876 -13.75126,15.71429 -30.71429,15.71429 -16.96303,0 -30.71428,-7.03553 -30.71428,-15.71429 0,-8.67876 13.75125,-15.71429 30.71428,-15.71429 16.96303,0 30.71429,7.03553 30.71429,15.71429 z"
         transform="matrix(-0.93227891,0.3617403,0.3617403,0.93227891,538.14417,-86.138796)" />
      <path
         transform="translate(10,-1.4285714)"
         d="m 311.42857,297.36218 c 0,7.10081 -3.99746,12.85715 -8.92857,12.85715 -4.93111,0 -8.92857,-5.75634 -8.92857,-12.85715 0,-7.1008 3.99746,-12.85714 8.92857,-12.85714 4.93111,0 8.92857,5.75634 8.92857,12.85714 z"
         sodipodi:ry="12.857142"
         sodipodi:rx="8.9285717"
         sodipodi:cy="297.36218"
         sodipodi:cx="302.5"
         id="path8085"
         style="fill:#000000;fill-opacity:1;stroke:none"
         sodipodi:type="arc" />
      <path
         sodipodi:type="arc"
         style="fill:#000000;fill-opacity:1;stroke:none"
         id="path8087"
         sodipodi:cx="302.5"
         sodipodi:cy="297.36218"
         sodipodi:rx="8.9285717"
         sodipodi:ry="12.857142"
         d="m 311.42857,297.36218 c 0,7.10081 -3.99746,12.85715 -8.92857,12.85715 -4.93111,0 -8.92857,-5.75634 -8.92857,-12.85715 0,-7.1008 3.99746,-12.85714 8.92857,-12.85714 4.93111,0 8.92857,5.75634 8.92857,12.85714 z"
         transform="translate(37.142857,-0.71428568)" />
      <path
         transform="matrix(0.51724138,0,0,0.77142857,168.34715,63.294236)"
         d="m 291.17648,297.90451 c 0,2.44078 -1.63944,4.41942 -3.6618,4.41942 -2.02236,0 -3.6618,-1.97864 -3.6618,-4.41942 0,-2.44078 1.63944,-4.41942 3.6618,-4.41942 2.02236,0 3.6618,1.97864 3.6618,4.41942 z"
         sodipodi:ry="4.4194174"
         sodipodi:rx="3.661803"
         sodipodi:cy="297.90451"
         sodipodi:cx="287.51468"
         id="path8089"
         style="fill:#ffffff;fill-opacity:1;stroke:none"
         sodipodi:type="arc" />
      <path
         sodipodi:type="arc"
         style="fill:#ffffff;fill-opacity:1;stroke:none"
         id="path8091"
         sodipodi:cx="287.51468"
         sodipodi:cy="297.90451"
         sodipodi:rx="3.661803"
         sodipodi:ry="4.4194174"
         d="m 291.17648,297.90451 c 0,2.44078 -1.63944,4.41942 -3.6618,4.41942 -2.02236,0 -3.6618,-1.97864 -3.6618,-4.41942 0,-2.44078 1.63944,-4.41942 3.6618,-4.41942 2.02236,0 3.6618,1.97864 3.6618,4.41942 z"
         transform="matrix(0.51724138,0,0,0.77142857,195.11619,63.546774)" />
    </g>
    <g
       transform="translate(37.142857,204.28571)"
       id="g8209">
      <g
         id="g8211">
        <g
           transform="matrix(0.85161559,0.10918753,-0.10823334,0.84417336,76.033092,296.48132)"
           id="g8213"
           inkscape:export-filename="C:\Users\Quim\Desktop\path8261.png"
           inkscape:export-xdpi="90"
           inkscape:export-ydpi="90">
          <path
             sodipodi:type="arc"
             style="fill:#ffffff;fill-opacity:0.73544976;stroke:#000000;stroke-width:2;stroke-miterlimit:4;stroke-opacity:1;stroke-dasharray:none"
             id="path8215"
             sodipodi:cx="204.28572"
             sodipodi:cy="179.50504"
             sodipodi:rx="118.57143"
             sodipodi:ry="61.42857"
             d="m 322.85715,179.50504 c 0,33.92606 -53.08624,61.42857 -118.57143,61.42857 -65.48519,0 -118.571426,-27.50251 -118.571426,-61.42857 0,-33.92607 53.086236,-61.42857 118.571426,-61.42857 65.48519,0 118.57143,27.5025 118.57143,61.42857 z" />
          <path
             sodipodi:type="arc"
             style="fill:#5d5e5d;fill-opacity:0.25396824;stroke:none;filter:url(#filter8123)"
             id="path8217"
             sodipodi:cx="210"
             sodipodi:cy="175.21933"
             sodipodi:rx="77.14286"
             sodipodi:ry="35.714287"
             d="m 287.14286,175.21933 c 0,19.72446 -34.53803,35.71429 -77.14286,35.71429 -42.60483,0 -77.14286,-15.98983 -77.14286,-35.71429 0,-19.72446 34.53803,-35.71429 77.14286,-35.71429 42.60483,0 77.14286,15.98983 77.14286,35.71429 z"
             transform="matrix(1.4351852,0,0,0.9,-97.817457,21.093361)" />
        </g>
        <g
           transform="matrix(0.99498386,0.1000356,-0.1000356,0.99498386,47.62746,179.17003)"
           id="g8219"
           inkscape:export-filename="C:\Users\Quim\Desktop\path8261.png"
           inkscape:export-xdpi="90"
           inkscape:export-ydpi="90">
          <path
             d="m 322.85715,179.50504 c 0,33.92606 -53.08624,61.42857 -118.57143,61.42857 -65.48519,0 -118.571426,-27.50251 -118.571426,-61.42857 0,-33.92607 53.086236,-61.42857 118.571426,-61.42857 65.48519,0 118.57143,27.5025 118.57143,61.42857 z"
             sodipodi:ry="61.42857"
             sodipodi:rx="118.57143"
             sodipodi:cy="179.50504"
             sodipodi:cx="204.28572"
             id="path8221"
             style="fill:#ffffff;fill-opacity:0.73544976;stroke:#000000;stroke-width:2;stroke-miterlimit:4;stroke-opacity:1;stroke-dasharray:none"
             sodipodi:type="arc" />
          <path
             transform="matrix(1.4351852,0,0,0.9,-97.817457,21.093361)"
             d="m 287.14286,175.21933 c 0,19.72446 -34.53803,35.71429 -77.14286,35.71429 -42.60483,0 -77.14286,-15.98983 -77.14286,-35.71429 0,-19.72446 34.53803,-35.71429 77.14286,-35.71429 42.60483,0 77.14286,15.98983 77.14286,35.71429 z"
             sodipodi:ry="35.714287"
             sodipodi:rx="77.14286"
             sodipodi:cy="175.21933"
             sodipodi:cx="210"
             id="path8223"
             style="fill:#5d5e5d;fill-opacity:0.25396824;stroke:none;filter:url(#filter8123)"
             sodipodi:type="arc" />
        </g>
        <g
           id="g8225"
           transform="matrix(-0.99993922,0.01102532,0.01102532,0.99993922,622.7143,194.98716)"
           inkscape:export-filename="C:\Users\Quim\Desktop\path8261.png"
           inkscape:export-xdpi="90"
           inkscape:export-ydpi="90">
          <path
             sodipodi:type="arc"
             style="fill:#ffffff;fill-opacity:0.73544976;stroke:#000000;stroke-width:2;stroke-miterlimit:4;stroke-opacity:1;stroke-dasharray:none"
             id="path8227"
             sodipodi:cx="204.28572"
             sodipodi:cy="179.50504"
             sodipodi:rx="118.57143"
             sodipodi:ry="61.42857"
             d="m 322.85715,179.50504 c 0,33.92606 -53.08624,61.42857 -118.57143,61.42857 -65.48519,0 -118.571426,-27.50251 -118.571426,-61.42857 0,-33.92607 53.086236,-61.42857 118.571426,-61.42857 65.48519,0 118.57143,27.5025 118.57143,61.42857 z" />
          <path
             sodipodi:type="arc"
             style="fill:#5d5e5d;fill-opacity:0.25396824;stroke:none;filter:url(#filter8123)"
             id="path8229"
             sodipodi:cx="210"
             sodipodi:cy="175.21933"
             sodipodi:rx="77.14286"
             sodipodi:ry="35.714287"
             d="m 287.14286,175.21933 c 0,19.72446 -34.53803,35.71429 -77.14286,35.71429 -42.60483,0 -77.14286,-15.98983 -77.14286,-35.71429 0,-19.72446 34.53803,-35.71429 77.14286,-35.71429 42.60483,0 77.14286,15.98983 77.14286,35.71429 z"
             transform="matrix(1.4351852,0,0,0.9,-97.817457,21.093361)" />
        </g>
        <g
           id="g8231"
           transform="matrix(-0.85412334,0.08743198,0.08666792,0.84665919,578.15542,303.31937)"
           inkscape:export-filename="C:\Users\Quim\Desktop\path8261.png"
           inkscape:export-xdpi="90"
           inkscape:export-ydpi="90">
          <path
             d="m 322.85715,179.50504 c 0,33.92606 -53.08624,61.42857 -118.57143,61.42857 -65.48519,0 -118.571426,-27.50251 -118.571426,-61.42857 0,-33.92607 53.086236,-61.42857 118.571426,-61.42857 65.48519,0 118.57143,27.5025 118.57143,61.42857 z"
             sodipodi:ry="61.42857"
             sodipodi:rx="118.57143"
             sodipodi:cy="179.50504"
             sodipodi:cx="204.28572"
             id="path8233"
             style="fill:#ffffff;fill-opacity:0.73544976;stroke:#000000;stroke-width:2;stroke-miterlimit:4;stroke-opacity:1;stroke-dasharray:none"
             sodipodi:type="arc" />
          <path
             transform="matrix(1.4351852,0,0,0.9,-97.817457,21.093361)"
             d="m 287.14286,175.21933 c 0,19.72446 -34.53803,35.71429 -77.14286,35.71429 -42.60483,0 -77.14286,-15.98983 -77.14286,-35.71429 0,-19.72446 34.53803,-35.71429 77.14286,-35.71429 42.60483,0 77.14286,15.98983 77.14286,35.71429 z"
             sodipodi:ry="35.714287"
             sodipodi:rx="77.14286"
             sodipodi:cy="175.21933"
             sodipodi:cx="210"
             id="path8235"
             style="fill:#5d5e5d;fill-opacity:0.25396824;stroke:none;filter:url(#filter8123)"
             sodipodi:type="arc" />
        </g>
      </g>
      <path
         sodipodi:type="star"
         style="fill:#000000;fill-opacity:1;stroke:none"
         id="path8237"
         sodipodi:sides="3"
         sodipodi:cx="94.285713"
         sodipodi:cy="449.50504"
         sodipodi:r1="88.201996"
         sodipodi:r2="44.100998"
         sodipodi:arg1="1.1361261"
         sodipodi:arg2="2.1833237"
         inkscape:flatsided="false"
         inkscape:rounded="0"
         inkscape:randomized="0"
         d="M 131.42857,529.50504 68.93041,485.58836 6.4322509,441.67169 75.714286,409.50503 l 69.282034,-32.16665 -6.78388,76.08333 z"
         inkscape:transform-center-x="0.12508899"
         inkscape:transform-center-y="6.5427202"
         transform="matrix(-0.02519219,-0.30112013,0.25060111,-0.03027072,216.50009,600.15089)"
         inkscape:export-filename="C:\Users\Quim\Desktop\path8261.png"
         inkscape:export-xdpi="90"
         inkscape:export-ydpi="90" />
      <path
         sodipodi:type="arc"
         style="fill:#000000;fill-opacity:1;stroke:none"
         id="path8239"
         sodipodi:cx="322.85715"
         sodipodi:cy="325.21933"
         sodipodi:rx="64.285713"
         sodipodi:ry="80"
         d="m 387.14286,325.21933 c 0,44.18278 -28.78169,80 -64.28571,80 -35.50402,0 -64.28572,-35.81722 -64.28572,-80 0,-44.18278 28.7817,-80 64.28572,-80 35.50402,0 64.28571,35.81722 64.28571,80 z"
         transform="matrix(1.2888889,0,0,0.96428571,-90.412697,1.6149761)"
         inkscape:export-filename="C:\Users\Quim\Desktop\path8261.png"
         inkscape:export-xdpi="90"
         inkscape:export-ydpi="90" />
      <path
         sodipodi:type="arc"
         style="fill:#000000;fill-opacity:1;stroke:#000000;stroke-width:2;stroke-miterlimit:4;stroke-opacity:1;stroke-dasharray:none"
         id="path8241"
         sodipodi:cx="322.14285"
         sodipodi:cy="489.50504"
         sodipodi:rx="102.14286"
         sodipodi:ry="118.57143"
         d="m 424.28571,489.50504 c 0,65.48519 -45.73091,118.57142 -102.14286,118.57142 -56.41194,0 -102.14286,-53.08623 -102.14286,-118.57142 0,-65.4852 45.73092,-118.57143 102.14286,-118.57143 56.41195,0 102.14286,53.08623 102.14286,118.57143 z"
         transform="translate(2.8571429,-48.571429)"
         inkscape:export-filename="C:\Users\Quim\Desktop\path8261.png"
         inkscape:export-xdpi="90"
         inkscape:export-ydpi="90" />
      <path
         style="fill:#ffff00;fill-opacity:1;stroke:#000000;stroke-opacity:1"
         d="m 223.79464,455.58482 c 2.67207,22.87788 10.97662,43.67063 23.21875,60.46875 25.16067,4.96039 52.99812,7.75 82.28125,7.75 25.4848,0 49.86006,-2.12645 72.34375,-5.9375 12.2935,-16.19008 20.83464,-36.29058 24.0625,-58.5 -28.01889,6.47476 -59.82067,10.15625 -93.5625,10.15625 -39.82397,0 -76.96599,-5.12943 -108.34375,-13.9375 z"
         id="path8243"
         inkscape:connector-curvature="0"
         inkscape:export-filename="C:\Users\Quim\Desktop\path8261.png"
         inkscape:export-xdpi="90"
         inkscape:export-ydpi="90" />
      <path
         style="fill:#ffff00;fill-opacity:1;stroke:#000000;stroke-opacity:1"
         d="m 256.38979,354.13375 c -13.4397,14.27733 -23.58574,32.65321 -28.9375,53.4375 30.34716,8.00951 65.76659,12.625 103.59375,12.625 33.42817,0 64.9841,-3.60613 92.8125,-9.96875 -5.0254,-21.2781 -15.0313,-40.16323 -28.4687,-54.875 -20.62962,3.13608 -42.76914,4.84375 -65.7813,4.84375 -25.81573,0 -50.49342,-2.15666 -73.21875,-6.0625 z"
         id="path8245"
         inkscape:connector-curvature="0"
         inkscape:export-filename="C:\Users\Quim\Desktop\path8261.png"
         inkscape:export-xdpi="90"
         inkscape:export-ydpi="90" />
      <path
         sodipodi:type="arc"
         style="fill:#ffffff;fill-opacity:1;stroke:none"
         id="path8247"
         sodipodi:cx="541.42859"
         sodipodi:cy="256.64789"
         sodipodi:rx="45.714287"
         sodipodi:ry="72.85714"
         d="m 587.14288,256.64789 c 0,40.23789 -20.46699,72.85714 -45.71429,72.85714 -25.2473,0 -45.71429,-32.61925 -45.71429,-72.85714 0,-40.23789 20.46699,-72.85714 45.71429,-72.85714 25.2473,0 45.71429,32.61925 45.71429,72.85714 z"
         transform="matrix(0.53589589,0.17094402,-0.15195022,0.47635186,50.276936,78.267779)"
         inkscape:export-filename="C:\Users\Quim\Desktop\path8261.png"
         inkscape:export-xdpi="90"
         inkscape:export-ydpi="90" />
      <path
         transform="matrix(-0.53589589,0.17094402,0.15195022,0.47635186,601.15167,79.696351)"
         d="m 587.14288,256.64789 c 0,40.23789 -20.46699,72.85714 -45.71429,72.85714 -25.2473,0 -45.71429,-32.61925 -45.71429,-72.85714 0,-40.23789 20.46699,-72.85714 45.71429,-72.85714 25.2473,0 45.71429,32.61925 45.71429,72.85714 z"
         sodipodi:ry="72.85714"
         sodipodi:rx="45.714287"
         sodipodi:cy="256.64789"
         sodipodi:cx="541.42859"
         id="path8249"
         style="fill:#ffffff;fill-opacity:1;stroke:none"
         sodipodi:type="arc"
         inkscape:transform-center-x="34.285714"
         inkscape:export-filename="C:\Users\Quim\Desktop\path8261.png"
         inkscape:export-xdpi="90"
         inkscape:export-ydpi="90" />
      <path
         sodipodi:type="arc"
         style="fill:#000000;fill-opacity:1;stroke:none"
         id="path8251"
         sodipodi:cx="303.57144"
         sodipodi:cy="265.21933"
         sodipodi:rx="30.714285"
         sodipodi:ry="15.714286"
         d="m 334.28573,265.21933 c 0,8.67876 -13.75126,15.71429 -30.71429,15.71429 -16.96303,0 -30.71428,-7.03553 -30.71428,-15.71429 0,-8.67876 13.75125,-15.71429 30.71428,-15.71429 16.96303,0 30.71429,7.03553 30.71429,15.71429 z"
         transform="matrix(0.93227891,0.3617403,-0.3617403,0.93227891,115.42728,-86.495938)"
         inkscape:export-filename="C:\Users\Quim\Desktop\path8261.png"
         inkscape:export-xdpi="90"
         inkscape:export-ydpi="90" />
      <path
         transform="matrix(-0.93227891,0.3617403,0.3617403,0.93227891,538.14417,-86.138796)"
         d="m 334.28573,265.21933 c 0,8.67876 -13.75126,15.71429 -30.71429,15.71429 -16.96303,0 -30.71428,-7.03553 -30.71428,-15.71429 0,-8.67876 13.75125,-15.71429 30.71428,-15.71429 16.96303,0 30.71429,7.03553 30.71429,15.71429 z"
         sodipodi:ry="15.714286"
         sodipodi:rx="30.714285"
         sodipodi:cy="265.21933"
         sodipodi:cx="303.57144"
         id="path8253"
         style="fill:#000000;fill-opacity:1;stroke:none"
         sodipodi:type="arc"
         inkscape:export-filename="C:\Users\Quim\Desktop\path8261.png"
         inkscape:export-xdpi="90"
         inkscape:export-ydpi="90" />
      <path
         sodipodi:type="arc"
         style="fill:#000000;fill-opacity:1;stroke:none"
         id="path8255"
         sodipodi:cx="302.5"
         sodipodi:cy="297.36218"
         sodipodi:rx="8.9285717"
         sodipodi:ry="12.857142"
         d="m 311.42857,297.36218 c 0,7.10081 -3.99746,12.85715 -8.92857,12.85715 -4.93111,0 -8.92857,-5.75634 -8.92857,-12.85715 0,-7.1008 3.99746,-12.85714 8.92857,-12.85714 4.93111,0 8.92857,5.75634 8.92857,12.85714 z"
         transform="translate(10,-1.4285714)"
         inkscape:export-filename="C:\Users\Quim\Desktop\path8261.png"
         inkscape:export-xdpi="90"
         inkscape:export-ydpi="90" />
      <path
         transform="translate(37.142857,-0.71428568)"
         d="m 311.42857,297.36218 c 0,7.10081 -3.99746,12.85715 -8.92857,12.85715 -4.93111,0 -8.92857,-5.75634 -8.92857,-12.85715 0,-7.1008 3.99746,-12.85714 8.92857,-12.85714 4.93111,0 8.92857,5.75634 8.92857,12.85714 z"
         sodipodi:ry="12.857142"
         sodipodi:rx="8.9285717"
         sodipodi:cy="297.36218"
         sodipodi:cx="302.5"
         id="path8257"
         style="fill:#000000;fill-opacity:1;stroke:none"
         sodipodi:type="arc"
         inkscape:export-filename="C:\Users\Quim\Desktop\path8261.png"
         inkscape:export-xdpi="90"
         inkscape:export-ydpi="90" />
      <path
         sodipodi:type="arc"
         style="fill:#ffffff;fill-opacity:1;stroke:none"
         id="path8259"
         sodipodi:cx="287.51468"
         sodipodi:cy="297.90451"
         sodipodi:rx="3.661803"
         sodipodi:ry="4.4194174"
         d="m 291.17648,297.90451 c 0,2.44078 -1.63944,4.41942 -3.6618,4.41942 -2.02236,0 -3.6618,-1.97864 -3.6618,-4.41942 0,-2.44078 1.63944,-4.41942 3.6618,-4.41942 2.02236,0 3.6618,1.97864 3.6618,4.41942 z"
         transform="matrix(0.51724138,0,0,0.77142857,168.34715,63.294236)"
         inkscape:export-filename="C:\Users\Quim\Desktop\path8261.png"
         inkscape:export-xdpi="90"
         inkscape:export-ydpi="90" />
      <path
         transform="matrix(0.51724138,0,0,0.77142857,195.11619,63.546774)"
         d="m 291.17648,297.90451 c 0,2.44078 -1.63944,4.41942 -3.6618,4.41942 -2.02236,0 -3.6618,-1.97864 -3.6618,-4.41942 0,-2.44078 1.63944,-4.41942 3.6618,-4.41942 2.02236,0 3.6618,1.97864 3.6618,4.41942 z"
         sodipodi:ry="4.4194174"
         sodipodi:rx="3.661803"
         sodipodi:cy="297.90451"
         sodipodi:cx="287.51468"
         id="path8261"
         style="fill:#ffffff;fill-opacity:1;stroke:none"
         sodipodi:type="arc"
         inkscape:export-xdpi="90"
         inkscape:export-ydpi="90" />
    </g>
  </g>
</svg>
