<?xml version="1.0" encoding="UTF-8" standalone="no"?>
<!-- Created with Inkscape (http://www.inkscape.org/) -->

<svg
   xmlns:dc="http://purl.org/dc/elements/1.1/"
   xmlns:cc="http://creativecommons.org/ns#"
   xmlns:rdf="http://www.w3.org/1999/02/22-rdf-syntax-ns#"
   xmlns:svg="http://www.w3.org/2000/svg"
   xmlns="http://www.w3.org/2000/svg"
   xmlns:sodipodi="http://sodipodi.sourceforge.net/DTD/sodipodi-0.dtd"
   xmlns:inkscape="http://www.inkscape.org/namespaces/inkscape"
   width="744.09448819"
   height="1052.3622047"
   id="svg2"
   version="1.1"
   inkscape:version="0.48.4 r9939"
   sodipodi:docname="bird-left.svg"
   inkscape:export-filename="C:\Users\Quim\Desktop\bird-left.png"
   inkscape:export-xdpi="90"
   inkscape:export-ydpi="90">
  <defs
     id="defs4">
    <filter
       inkscape:collect="always"
       id="filter5311">
      <feGaussianBlur
         inkscape:collect="always"
         stdDeviation="0.26280194"
         id="feGaussianBlur5313" />
    </filter>
    <filter
       inkscape:collect="always"
       id="filter5386"
       x="-0.36119296"
       width="1.7223859"
       y="-0.075233207"
       height="1.1504664">
      <feGaussianBlur
         inkscape:collect="always"
         stdDeviation="1.3811197"
         id="feGaussianBlur5388" />
    </filter>
    <filter
       inkscape:collect="always"
       id="filter5402"
       x="-0.048441897"
       width="1.0968838"
       y="-0.1529941"
       height="1.3059882">
      <feGaussianBlur
         inkscape:collect="always"
         stdDeviation="2.0638267"
         id="feGaussianBlur5404" />
    </filter>
    <filter
       inkscape:collect="always"
       id="filter8267"
       x="-0.1007102"
       width="1.2014204"
       y="-0.13256293"
       height="1.2651259">
      <feGaussianBlur
         inkscape:collect="always"
         stdDeviation="2.2447221"
         id="feGaussianBlur8269" />
    </filter>
  </defs>
  <sodipodi:namedview
     id="base"
     pagecolor="#ffffff"
     bordercolor="#666666"
     borderopacity="1.0"
     inkscape:pageopacity="0.0"
     inkscape:pageshadow="2"
     inkscape:zoom="1"
     inkscape:cx="91.936853"
     inkscape:cy="285.70856"
     inkscape:document-units="px"
     inkscape:current-layer="g3958"
     showgrid="false"
     inkscape:window-width="1366"
     inkscape:window-height="705"
     inkscape:window-x="-8"
     inkscape:window-y="-8"
     inkscape:window-maximized="1" />
  <metadata
     id="metadata7">
    <rdf:RDF>
      <cc:Work
         rdf:about="">
        <dc:format>image/svg+xml</dc:format>
        <dc:type
           rdf:resource="http://purl.org/dc/dcmitype/StillImage" />
        <dc:title />
      </cc:Work>
    </rdf:RDF>
  </metadata>
  <g
     inkscape:label="Layer 1"
     inkscape:groupmode="layer"
     id="layer1">
    <g
       id="g3021"
       transform="translate(-188.5,4)">
      <path
         style="fill:#ff1900;fill-opacity:1;stroke:#000000;stroke-width:1;stroke-miterlimit:4;stroke-opacity:1;stroke-dasharray:none"
         d="m 235.79428,576.04515 c 1.22766,0.72456 2.35588,2.17967 3.31045,4.39571 2.99156,6.94489 3.36232,19.34936 1.28108,30.67282 l 0.0348,0.074 c 0,0 -2.9827,15.46099 -5.78734,23.80675 -2.80463,8.34578 -5.42646,9.58469 -7.80028,10.61575 -1.02957,0.44718 -2.84223,-0.91851 -3.45741,-2.51224 -0.61518,-1.59375 -0.66061,-5.26545 -0.49012,-7.99566 0.12224,-1.9576 0.62834,-3.70788 1.38089,-5.37636 -0.72376,-0.03 -1.40949,-0.20765 -2.07735,-0.39264 -1.01487,-0.28111 -2.5961,-2.7595 -3.02204,-4.66034 -0.42593,-1.90085 -0.11255,-5.3739 0.31308,-7.80071 0.23189,-1.3222 0.6666,-2.35842 1.24391,-3.24443 -0.007,-0.21088 -0.014,-0.41878 -0.019,-0.6312 -0.32765,-0.2627 -0.64405,-0.54279 -0.95568,-0.82246 -0.82132,-0.73706 -1.94967,-3.58654 -2.16324,-5.37702 -0.21357,-1.79049 0.30258,-4.50786 0.83421,-6.3128 0.62083,-2.10779 1.91616,-2.71492 3.49693,-2.99286 0.0836,-0.47116 0.16928,-0.94557 0.26133,-1.41284 -0.40707,-0.76897 -0.78343,-1.59479 -1.14266,-2.38674 -0.6011,-1.3252 -1.19987,-4.67242 -1.15927,-6.36031 0.0406,-1.68786 0.80914,-3.53188 1.47926,-4.59139 0.98243,-1.55328 2.58266,-0.22191 4.40919,1.41788 3.08404,-7.03089 6.87422,-9.9751 10.02929,-8.11296 z"
         id="path5510"
         inkscape:connector-curvature="0" />
      <path
         id="path2985"
         d="m 276.25,513.90625 5.9375,6.40625 -6.21875,-1.90625 L 268.1875,516 l 7.1875,5.125 -3.34375,0.15625 -8.125,0.4375 6.21875,1.6875 c -22.90056,10.68742 -41.5625,49.78165 -41.5625,83.0625 0,38.9558 25.58503,55.1875 53.59375,55.1875 28.00873,0 56.0625,-14.7942 56.0625,-53.75 0,-35.08631 -22.76359,-77.79697 -47.75,-85.9375 l 0.0625,-0.15625 -7.15625,-3.9375 -7.125,-3.96875 z"
         style="fill:#ff1900;fill-opacity:1;fill-rule:evenodd;stroke:#000000;stroke-width:1px;stroke-linecap:butt;stroke-linejoin:miter;stroke-opacity:1"
         inkscape:connector-curvature="0" />
      <path
         id="path5336"
         d="m 232.15625,629.28125 c 7.98273,22.59176 28.25998,32.375 50,32.375 21.82981,0 43.66632,-8.99773 52.25,-31.40625 -12.31383,13.49273 -32.21019,19.125 -52.09375,19.125 -19.87952,0 -38.67994,-6.1904 -50.15625,-20.09375 z"
         style="fill:#000000;fill-opacity:0.15204677;fill-rule:evenodd;stroke:none;filter:url(#filter5402)"
         inkscape:connector-curvature="0" />
      <g
         transform="matrix(0.88350293,0,0,1,26.196318,-2.5253814)"
         id="g5473">
        <g
           transform="translate(-6.6298918,-3.4168918)"
           id="g8275">
          <path
             inkscape:connector-curvature="0"
             id="path5244"
             d="m 277.07517,537.22554 c -6.05448,-1.71173 -21.46488,10.47192 -25.46496,24.10349 -4.57153,15.57894 -5.21504,29.48176 6.26734,32.52501 10.47105,2.77521 17.32296,-6.13654 22.77749,-19.41812 5.45313,13.28617 17.18776,21.50355 27.66087,18.7278 11.48237,-3.04325 17.08958,-18.15413 12.51806,-33.73307 -4.57153,-15.57893 -17.59183,-25.72384 -29.0742,-22.68059 -4.8779,1.29282 -8.67836,4.76125 -11.10473,9.51741 -0.96496,-6.47351 -1.78341,-8.53404 -3.57987,-9.04193 z"
             style="fill:#ffffff;fill-opacity:1;stroke:#000000;stroke-width:1;stroke-miterlimit:4;stroke-opacity:1;stroke-dasharray:none"
             sodipodi:nodetypes="ssscssscs" />
          <g
             transform="translate(-2.2728433,-10.85914)"
             id="g5469">
            <path
               inkscape:connector-curvature="0"
               transform="matrix(0.75612255,0,0,0.80814977,117.08908,73.55842)"
               style="fill:#000002;fill-opacity:1;stroke:#000000;stroke-width:1;stroke-miterlimit:4;stroke-opacity:1"
               d="m 245.35714,616.11218 c 0,7.39667 -4.717,13.39286 -10.53571,13.39286 -5.81872,0 -10.53572,-5.99619 -10.53572,-13.39286 0,-7.39667 4.717,-13.39285 10.53572,-13.39285 5.81871,0 10.53571,5.99618 10.53571,13.39285 z"
               id="path5317" />
            <path
               inkscape:connector-curvature="0"
               transform="matrix(0.16486494,0.06241963,-0.1014265,0.26789126,290.8798,395.83154)"
               style="fill:#ffffff;fill-opacity:1;stroke:none"
               d="m 361.12955,561.42804 c 0,8.92627 -5.99246,16.16244 -13.38452,16.16244 -7.39207,0 -13.38452,-7.23617 -13.38452,-16.16244 0,-8.92627 5.99245,-16.16244 13.38452,-16.16244 7.39206,0 13.38452,7.23617 13.38452,16.16244 z"
               id="path5420" />
          </g>
          <g
             transform="matrix(0.86895066,0.08678111,-0.12713265,0.99367185,102.81504,-32.987174)"
             id="g5465">
            <path
               transform="matrix(0.75612255,0,0,0.80814977,92.08908,73.55842)"
               style="fill:#000002;fill-opacity:1;stroke:#000000;stroke-width:1;stroke-miterlimit:4;stroke-opacity:1"
               d="m 245.35714,616.11218 c 0,7.39667 -4.717,13.39286 -10.53571,13.39286 -5.81872,0 -10.53572,-5.99619 -10.53572,-13.39286 0,-7.39667 4.717,-13.39285 10.53572,-13.39285 5.81871,0 10.53571,5.99618 10.53571,13.39285 z"
               id="path5315"
               inkscape:connector-curvature="0" />
            <path
               transform="matrix(0.16486494,0.06241963,-0.1014265,0.26789126,265.87852,395.32646)"
               style="fill:#ffffff;fill-opacity:1;stroke:none"
               d="m 361.12955,561.42804 c 0,8.92627 -5.99246,16.16244 -13.38452,16.16244 -7.39207,0 -13.38452,-7.23617 -13.38452,-16.16244 0,-8.92627 5.99245,-16.16244 13.38452,-16.16244 7.39206,0 13.38452,7.23617 13.38452,16.16244 z"
               id="path5422"
               inkscape:connector-curvature="0" />
          </g>
          <path
             sodipodi:nodetypes="sscscscsscs"
             inkscape:connector-curvature="0"
             transform="matrix(1.1318582,0,0,1,-23.020624,5.9422732)"
             id="path8284"
             d="m 281,530.28125 c -0.96768,0.0599 -1.92393,0.24595 -2.875,0.53125 -4.30964,1.29282 -7.66879,4.74384 -9.8125,9.5 -0.85254,-6.47351 -1.60032,-8.52336 -3.1875,-9.03125 -4.13657,-1.32371 -13.18046,5.67954 -18.71875,15.21875 2.93212,0.17442 6.56921,1.11733 10.34375,2.84375 4.37745,2.00219 8.03515,4.65078 10.34375,7.21875 2.85841,-3.01322 8.78418,-6.34547 16.15625,-8.75 5.69359,-1.85706 11.17065,-2.79669 15.40625,-2.84375 0.69592,-0.008 1.34563,0.0209 1.96875,0.0625 -4.70543,-9.35178 -12.28877,-15.2039 -19.625,-14.75 z"
             style="fill:#ff1900;fill-opacity:1;stroke:#000000;stroke-width:0.93994838;stroke-miterlimit:4;stroke-opacity:1;stroke-dasharray:none" />
          <path
             id="path8299"
             transform="matrix(1.1318582,0,0,1,-23.020624,5.9422732)"
             d="m 281,530.28125 c -0.96768,0.0599 -1.92393,0.24595 -2.875,0.53125 -4.30964,1.29282 -7.66879,4.74384 -9.8125,9.5 -0.85254,-6.47351 -1.60032,-8.52336 -3.1875,-9.03125 -4.13657,-1.32371 -13.18046,5.67954 -18.71875,15.21875 2.93212,0.17442 6.56921,1.11733 10.34375,2.84375 4.37745,2.00219 8.03515,4.65078 10.34375,7.21875 2.85841,-3.01322 8.78418,-6.34547 16.15625,-8.75 5.69359,-1.85706 11.17065,-2.79669 15.40625,-2.84375 0.69592,-0.008 1.34563,0.0209 1.96875,0.0625 -4.70543,-9.35178 -12.28877,-15.2039 -19.625,-14.75 z"
             style="fill:#ff1900;fill-opacity:1;stroke:#000000;stroke-width:0.93994838;stroke-miterlimit:4;stroke-opacity:1;stroke-dasharray:none"
             inkscape:connector-curvature="0" />
        </g>
      </g>
      <g
         transform="matrix(0.99931082,-0.03711984,0.03711984,0.99931082,-31.429633,8.1383268)"
         id="g5526">
        <path
           transform="matrix(0.82065026,0.11278143,-0.08562051,0.60106538,138.11157,227.73396)"
           style="fill:#f98d02;fill-opacity:1;stroke:#000000;stroke-width:1;stroke-miterlimit:4;stroke-opacity:1;filter:url(#filter5311)"
           inkscape:transform-center-y="7.9000154"
           d="m 194.8903,558.28851 c 0,0 5.5949,0.36743 8.22473,-0.70165 5.3962,-2.19366 7.32935,-11.40691 14.67195,-11.38534 7.21654,0.0212 10.10294,4.78414 18.72736,8.66057 8.62442,3.87644 22.00596,0.50632 22.00596,0.50632 0,0 -0.45497,30.42346 -7.49591,42.63614 -7.16012,12.41943 -34.59238,37.63996 -34.59238,37.63996 0,0 -10.38442,-15.41555 -17.03378,-32.75486 -5.27768,-13.76244 -4.50793,-44.60114 -4.50793,-44.60114 z"
           id="path5249"
           inkscape:connector-curvature="0"
           sodipodi:nodetypes="cacscscsc" />
        <path
           sodipodi:nodetypes="sscscscss"
           style="fill:#f9b702;fill-opacity:1;stroke:none;filter:url(#filter8267)"
           d="m 281.39393,598.5456 c -8.29143,3.25753 -5.15256,4.31331 -13.22514,5.74536 -2.92533,0.51894 -3.37367,1.70052 -7.55385,1.45426 0.494,2.50003 0.91528,7.26597 2.55862,10.58907 5.1344,10.38258 16.25024,23.00782 16.25024,23.00782 0,0 24.28455,-14.59534 30.86231,-22.59397 1.46773,-1.78477 3.06137,-3.89046 4.26947,-9.33769 -2.74969,-0.73003 -10.73429,-0.87554 -15.9174,-1.70748 -8.22135,-1.31959 -11.12244,-9.56251 -17.24425,-7.15737 z"
           id="path5319"
           inkscape:connector-curvature="0"
           transform="matrix(0.89330649,0.12276653,-0.13294248,0.93327081,98.049314,0.26276699)" />
        <path
           inkscape:transform-center-x="0.13169861"
           inkscape:transform-center-y="-1.2526401"
           sodipodi:type="arc"
           style="fill:#000002;fill-opacity:0.70760235;stroke:none"
           id="path5326"
           sodipodi:cx="234.82143"
           sodipodi:cy="616.11218"
           sodipodi:rx="10.535714"
           sodipodi:ry="13.392858"
           d="m 245.35714,616.11218 c 0,7.39667 -4.717,13.39286 -10.53571,13.39286 -5.81872,0 -10.53572,-5.99619 -10.53572,-13.39286 0,-7.39667 4.717,-13.39285 10.53572,-13.39285 5.81871,0 10.53571,5.99618 10.53571,13.39285 z"
           transform="matrix(-0.08141027,0.0282048,0.02031439,0.26929025,282.49794,418.15652)" />
        <path
           style="fill:#ffffff;fill-opacity:0.1988304;stroke:none;filter:url(#filter5386)"
           inkscape:transform-center-x="-1.3671746"
           inkscape:transform-center-y="-0.23996526"
           d="m 287.13586,629.61332 c -1.54227,7.1609 -4.97789,-12.12463 -4.94146,-19.44964 0.0364,-7.32501 -1.27482,-21.59772 5.91768,-22.98518 4.01805,-0.7751 -1.21112,6.5716 0.32988,10.36247 1.54102,3.79088 2.92423,3.24049 2.85526,7.33203 -0.0652,3.86964 -1.13458,7.06826 -2.71203,10.60239 -1.57744,3.53413 0.0611,7.12508 -1.44933,14.13793 z"
           id="path5333"
           inkscape:connector-curvature="0"
           sodipodi:nodetypes="sssssss"
           transform="matrix(0.89260844,0.12774305,-0.13814157,0.93251543,98.671426,1.2771738)" />
        <path
           transform="matrix(0.04561444,0.04906838,-0.06140911,0.25347278,287.78877,422.21975)"
           d="m 245.35714,616.11218 c 0,7.39667 -4.717,13.39286 -10.53571,13.39286 -5.81872,0 -10.53572,-5.99619 -10.53572,-13.39286 0,-7.39667 4.717,-13.39285 10.53572,-13.39285 5.81871,0 10.53571,5.99618 10.53571,13.39285 z"
           sodipodi:ry="13.392858"
           sodipodi:rx="10.535714"
           sodipodi:cy="616.11218"
           sodipodi:cx="234.82143"
           id="path5406"
           style="fill:#000002;fill-opacity:0.70760235;stroke:none"
           sodipodi:type="arc"
           inkscape:transform-center-y="-1.2526401"
           inkscape:transform-center-x="-0.085322184" />
      </g>
      <g
         transform="translate(0.86289549,0)"
         id="g5504">
        <path
           style="fill:#ff1900;fill-opacity:1;stroke:#000000;stroke-width:0.84162414;stroke-miterlimit:4;stroke-opacity:1;stroke-dasharray:none"
           d="m 325.97204,579.41966 c -3.27983,0.7212 -6.294,2.16957 -8.84424,4.37533 -7.9923,6.91269 -8.98285,19.25963 -3.42255,30.53059 l -0.0929,0.0737 c 0,0 7.96864,15.3893 15.46154,23.69636 7.49291,8.30708 14.49744,9.54024 20.83938,10.56652 2.75061,0.44511 7.59333,-0.91425 9.23687,-2.50059 1.64353,-1.58636 1.7649,-5.24103 1.30942,-7.95858 -0.32659,-1.94853 -1.6787,-3.69069 -3.68921,-5.35143 1.93361,-0.0299 3.7656,-0.20669 5.54988,-0.39082 2.71133,-0.27981 6.93577,-2.7467 8.07372,-4.63873 1.13792,-1.89204 0.3007,-5.34898 -0.83641,-7.76454 -0.61953,-1.31607 -1.78091,-2.34748 -3.32327,-3.22938 0.0186,-0.2099 0.0375,-0.41684 0.0508,-0.62828 0.87535,-0.26148 1.72064,-0.54027 2.55321,-0.81864 2.19424,-0.73364 5.20876,-3.56991 5.77935,-5.35209 0.57056,-1.78218 -0.80839,-4.48695 -2.22869,-6.28352 -1.65862,-2.09802 -5.11924,-2.70233 -9.34245,-2.97899 -0.22333,-0.46897 -0.45227,-0.94118 -0.69818,-1.40628 1.08752,-0.76541 2.09303,-1.5874 3.05274,-2.37568 1.6059,-1.31905 3.20559,-4.65075 3.09713,-6.33081 -0.10847,-1.68004 -2.16171,-3.5155 -3.95202,-4.5701 -2.62467,-1.54608 -6.89987,-0.22088 -11.77967,1.4113 -8.23937,-6.99828 -18.36528,-9.92884 -26.79442,-8.07534 z"
           id="path5416"
           inkscape:connector-curvature="0" />
        <path
           sodipodi:type="star"
           style="fill:#ff1900;fill-opacity:1;stroke:none"
           id="path5492"
           sodipodi:sides="3"
           sodipodi:cx="319.71329"
           sodipodi:cy="565.72119"
           sodipodi:r1="35.949226"
           sodipodi:r2="17.974613"
           sodipodi:arg1="1.5004899"
           sodipodi:arg2="2.5476874"
           inkscape:flatsided="false"
           inkscape:rounded="0"
           inkscape:randomized="0"
           d="m 322.23867,601.58161 -17.42205,-25.80179 -17.42205,-25.80179 31.05603,-2.18705 31.05603,-2.18704 -13.63398,27.98883 z"
           inkscape:transform-center-x="1.1347539"
           inkscape:transform-center-y="-4.2421285"
           transform="matrix(0.31363913,-0.46968546,0.35168102,0.4252878,23.066393,498.36849)" />
      </g>
    </g>
    <g
       transform="translate(-7.5000008,5)"
       id="g3046">
      <path
         inkscape:connector-curvature="0"
         id="path3048"
         d="m 238.18596,576.59548 c 1.18023,0.61014 2.21049,1.69695 3.01432,3.27298 2.51913,4.93918 2.03592,13.24611 -0.82981,20.57848 l 0.0298,0.0529 c 0,0 -4.05414,9.99697 -7.43957,15.26954 -3.38543,5.2726 -6.09798,5.82685 -8.5477,6.26824 -1.06248,0.19143 -2.78474,-0.90666 -3.29136,-2.03272 -0.50661,-1.12609 -0.29917,-3.57826 0.0598,-5.3805 0.25738,-1.29223 0.88513,-2.4065 1.75418,-3.44071 -0.72318,-0.095 -1.39807,-0.28443 -2.05454,-0.47691 -0.99757,-0.2925 -2.41125,-2.10832 -2.70709,-3.4195 -0.29582,-1.31118 0.25751,-3.59377 0.85123,-5.16735 0.32347,-0.85732 0.83046,-1.50301 1.47002,-2.03381 0.008,-0.14129 0.0148,-0.28059 0.0245,-0.42271 -0.31021,-0.20904 -0.60796,-0.42853 -0.90095,-0.64722 -0.77221,-0.57639 -1.70653,-2.59265 -1.79717,-3.80828 -0.0906,-1.21561 0.61381,-2.97348 1.27091,-4.12154 0.76733,-1.34069 2.10713,-1.61122 3.71029,-1.63275 0.11622,-0.30541 0.23478,-0.61277 0.35922,-0.9147 -0.35491,-0.55475 -0.67514,-1.14419 -0.98053,-1.7093 -0.51102,-0.94561 -0.88037,-3.23881 -0.72339,-4.35972 0.15699,-1.12088 1.05416,-2.27045 1.79866,-2.90729 1.09146,-0.93361 2.60322,0.11961 4.32049,1.40186 3.57481,-4.36718 7.57561,-5.93712 10.60881,-4.36906 z"
         style="fill:#ff1900;fill-opacity:1;stroke:#000000;stroke-width:0.82162988;stroke-miterlimit:4;stroke-opacity:1;stroke-dasharray:none" />
      <path
         inkscape:connector-curvature="0"
         style="fill:#ff1900;fill-opacity:1;fill-rule:evenodd;stroke:#000000;stroke-width:1px;stroke-linecap:butt;stroke-linejoin:miter;stroke-opacity:1"
         d="m 276.25,513.90625 5.9375,6.40625 -6.21875,-1.90625 L 268.1875,516 l 7.1875,5.125 -3.34375,0.15625 -8.125,0.4375 6.21875,1.6875 c -22.90056,10.68742 -41.5625,49.78165 -41.5625,83.0625 0,38.9558 25.58503,55.1875 53.59375,55.1875 28.00873,0 56.0625,-14.7942 56.0625,-53.75 0,-35.08631 -22.76359,-77.79697 -47.75,-85.9375 l 0.0625,-0.15625 -7.15625,-3.9375 -7.125,-3.96875 z"
         id="path3050" />
      <path
         inkscape:connector-curvature="0"
         style="fill:#000000;fill-opacity:0.15204677;fill-rule:evenodd;stroke:none;filter:url(#filter5402)"
         d="m 232.15625,629.28125 c 7.98273,22.59176 28.25998,32.375 50,32.375 21.82981,0 43.66632,-8.99773 52.25,-31.40625 -12.31383,13.49273 -32.21019,19.125 -52.09375,19.125 -19.87952,0 -38.67994,-6.1904 -50.15625,-20.09375 z"
         id="path3052" />
      <g
         id="g3054"
         transform="matrix(0.88350293,0,0,1,26.196318,-2.5253814)">
        <g
           id="g3056"
           transform="translate(-6.6298918,-3.4168918)">
          <path
             sodipodi:nodetypes="ssscssscs"
             style="fill:#ffffff;fill-opacity:1;stroke:#000000;stroke-width:1;stroke-miterlimit:4;stroke-opacity:1;stroke-dasharray:none"
             d="m 277.07517,537.22554 c -6.05448,-1.71173 -21.46488,10.47192 -25.46496,24.10349 -4.57153,15.57894 -5.21504,29.48176 6.26734,32.52501 10.47105,2.77521 17.32296,-6.13654 22.77749,-19.41812 5.45313,13.28617 17.18776,21.50355 27.66087,18.7278 11.48237,-3.04325 17.08958,-18.15413 12.51806,-33.73307 -4.57153,-15.57893 -17.59183,-25.72384 -29.0742,-22.68059 -4.8779,1.29282 -8.67836,4.76125 -11.10473,9.51741 -0.96496,-6.47351 -1.78341,-8.53404 -3.57987,-9.04193 z"
             id="path3058"
             inkscape:connector-curvature="0" />
          <g
             id="g3060"
             transform="translate(-2.2728433,-10.85914)">
            <path
               id="path3062"
               d="m 245.35714,616.11218 c 0,7.39667 -4.717,13.39286 -10.53571,13.39286 -5.81872,0 -10.53572,-5.99619 -10.53572,-13.39286 0,-7.39667 4.717,-13.39285 10.53572,-13.39285 5.81871,0 10.53571,5.99618 10.53571,13.39285 z"
               style="fill:#000002;fill-opacity:1;stroke:#000000;stroke-width:1;stroke-miterlimit:4;stroke-opacity:1"
               transform="matrix(0.75612255,0,0,0.80814977,117.08908,73.55842)"
               inkscape:connector-curvature="0" />
            <path
               id="path3064"
               d="m 361.12955,561.42804 c 0,8.92627 -5.99246,16.16244 -13.38452,16.16244 -7.39207,0 -13.38452,-7.23617 -13.38452,-16.16244 0,-8.92627 5.99245,-16.16244 13.38452,-16.16244 7.39206,0 13.38452,7.23617 13.38452,16.16244 z"
               style="fill:#ffffff;fill-opacity:1;stroke:none"
               transform="matrix(0.16486494,0.06241963,-0.1014265,0.26789126,290.8798,395.83154)"
               inkscape:connector-curvature="0" />
          </g>
          <g
             id="g3066"
             transform="matrix(0.86895066,0.08678111,-0.12713265,0.99367185,102.81504,-32.987174)">
            <path
               inkscape:connector-curvature="0"
               id="path3068"
               d="m 245.35714,616.11218 c 0,7.39667 -4.717,13.39286 -10.53571,13.39286 -5.81872,0 -10.53572,-5.99619 -10.53572,-13.39286 0,-7.39667 4.717,-13.39285 10.53572,-13.39285 5.81871,0 10.53571,5.99618 10.53571,13.39285 z"
               style="fill:#000002;fill-opacity:1;stroke:#000000;stroke-width:1;stroke-miterlimit:4;stroke-opacity:1"
               transform="matrix(0.75612255,0,0,0.80814977,92.08908,73.55842)" />
            <path
               inkscape:connector-curvature="0"
               id="path3070"
               d="m 361.12955,561.42804 c 0,8.92627 -5.99246,16.16244 -13.38452,16.16244 -7.39207,0 -13.38452,-7.23617 -13.38452,-16.16244 0,-8.92627 5.99245,-16.16244 13.38452,-16.16244 7.39206,0 13.38452,7.23617 13.38452,16.16244 z"
               style="fill:#ffffff;fill-opacity:1;stroke:none"
               transform="matrix(0.16486494,0.06241963,-0.1014265,0.26789126,265.87852,395.32646)" />
          </g>
          <path
             style="fill:#ff1900;fill-opacity:1;stroke:#000000;stroke-width:0.93994838;stroke-miterlimit:4;stroke-opacity:1;stroke-dasharray:none"
             d="m 281,530.28125 c -0.96768,0.0599 -1.92393,0.24595 -2.875,0.53125 -4.30964,1.29282 -7.66879,4.74384 -9.8125,9.5 -0.85254,-6.47351 -1.60032,-8.52336 -3.1875,-9.03125 -4.13657,-1.32371 -13.18046,5.67954 -18.71875,15.21875 2.93212,0.17442 6.56921,1.11733 10.34375,2.84375 4.37745,2.00219 8.03515,4.65078 10.34375,7.21875 2.85841,-3.01322 8.78418,-6.34547 16.15625,-8.75 5.69359,-1.85706 11.17065,-2.79669 15.40625,-2.84375 0.69592,-0.008 1.34563,0.0209 1.96875,0.0625 -4.70543,-9.35178 -12.28877,-15.2039 -19.625,-14.75 z"
             id="path3072"
             transform="matrix(1.1318582,0,0,1,-23.020624,5.9422732)"
             inkscape:connector-curvature="0"
             sodipodi:nodetypes="sscscscsscs" />
          <path
             inkscape:connector-curvature="0"
             style="fill:#ff1900;fill-opacity:1;stroke:#000000;stroke-width:0.93994838;stroke-miterlimit:4;stroke-opacity:1;stroke-dasharray:none"
             d="m 281,530.28125 c -0.96768,0.0599 -1.92393,0.24595 -2.875,0.53125 -4.30964,1.29282 -7.66879,4.74384 -9.8125,9.5 -0.85254,-6.47351 -1.60032,-8.52336 -3.1875,-9.03125 -4.13657,-1.32371 -13.18046,5.67954 -18.71875,15.21875 2.93212,0.17442 6.56921,1.11733 10.34375,2.84375 4.37745,2.00219 8.03515,4.65078 10.34375,7.21875 2.85841,-3.01322 8.78418,-6.34547 16.15625,-8.75 5.69359,-1.85706 11.17065,-2.79669 15.40625,-2.84375 0.69592,-0.008 1.34563,0.0209 1.96875,0.0625 -4.70543,-9.35178 -12.28877,-15.2039 -19.625,-14.75 z"
             transform="matrix(1.1318582,0,0,1,-23.020624,5.9422732)"
             id="path3074" />
        </g>
      </g>
      <g
         id="g3076"
         transform="matrix(0.99931082,-0.03711984,0.03711984,0.99931082,-31.429633,8.1383268)">
        <path
           sodipodi:nodetypes="cacscscsc"
           inkscape:connector-curvature="0"
           id="path3078"
           d="m 194.8903,558.28851 c 0,0 5.5949,0.36743 8.22473,-0.70165 5.3962,-2.19366 7.32935,-11.40691 14.67195,-11.38534 7.21654,0.0212 10.10294,4.78414 18.72736,8.66057 8.62442,3.87644 22.00596,0.50632 22.00596,0.50632 0,0 -0.45497,30.42346 -7.49591,42.63614 -7.16012,12.41943 -34.59238,37.63996 -34.59238,37.63996 0,0 -10.38442,-15.41555 -17.03378,-32.75486 -5.27768,-13.76244 -4.50793,-44.60114 -4.50793,-44.60114 z"
           inkscape:transform-center-y="7.9000154"
           style="fill:#f98d02;fill-opacity:1;stroke:#000000;stroke-width:1;stroke-miterlimit:4;stroke-opacity:1;filter:url(#filter5311)"
           transform="matrix(0.82065026,0.11278143,-0.08562051,0.60106538,138.11157,227.73396)" />
        <path
           transform="matrix(0.89330649,0.12276653,-0.13294248,0.93327081,98.049314,0.26276699)"
           inkscape:connector-curvature="0"
           id="path3080"
           d="m 281.39393,598.5456 c -8.29143,3.25753 -5.15256,4.31331 -13.22514,5.74536 -2.92533,0.51894 -3.37367,1.70052 -7.55385,1.45426 0.494,2.50003 0.91528,7.26597 2.55862,10.58907 5.1344,10.38258 16.25024,23.00782 16.25024,23.00782 0,0 24.28455,-14.59534 30.86231,-22.59397 1.46773,-1.78477 3.06137,-3.89046 4.26947,-9.33769 -2.74969,-0.73003 -10.73429,-0.87554 -15.9174,-1.70748 -8.22135,-1.31959 -11.12244,-9.56251 -17.24425,-7.15737 z"
           style="fill:#f9b702;fill-opacity:1;stroke:none;filter:url(#filter8267)"
           sodipodi:nodetypes="sscscscss" />
        <path
           transform="matrix(-0.08141027,0.0282048,0.02031439,0.26929025,282.49794,418.15652)"
           d="m 245.35714,616.11218 c 0,7.39667 -4.717,13.39286 -10.53571,13.39286 -5.81872,0 -10.53572,-5.99619 -10.53572,-13.39286 0,-7.39667 4.717,-13.39285 10.53572,-13.39285 5.81871,0 10.53571,5.99618 10.53571,13.39285 z"
           sodipodi:ry="13.392858"
           sodipodi:rx="10.535714"
           sodipodi:cy="616.11218"
           sodipodi:cx="234.82143"
           id="path3082"
           style="fill:#000002;fill-opacity:0.70760235;stroke:none"
           sodipodi:type="arc"
           inkscape:transform-center-y="-1.2526401"
           inkscape:transform-center-x="0.13169861" />
        <path
           transform="matrix(0.89260844,0.12774305,-0.13814157,0.93251543,98.671426,1.2771738)"
           sodipodi:nodetypes="sssssss"
           inkscape:connector-curvature="0"
           id="path3084"
           d="m 287.13586,629.61332 c -1.54227,7.1609 -4.97789,-12.12463 -4.94146,-19.44964 0.0364,-7.32501 -1.27482,-21.59772 5.91768,-22.98518 4.01805,-0.7751 -1.21112,6.5716 0.32988,10.36247 1.54102,3.79088 2.92423,3.24049 2.85526,7.33203 -0.0652,3.86964 -1.13458,7.06826 -2.71203,10.60239 -1.57744,3.53413 0.0611,7.12508 -1.44933,14.13793 z"
           inkscape:transform-center-y="-0.23996526"
           inkscape:transform-center-x="-1.3671746"
           style="fill:#ffffff;fill-opacity:0.1988304;stroke:none;filter:url(#filter5386)" />
        <path
           inkscape:transform-center-x="-0.085322184"
           inkscape:transform-center-y="-1.2526401"
           sodipodi:type="arc"
           style="fill:#000002;fill-opacity:0.70760235;stroke:none"
           id="path3086"
           sodipodi:cx="234.82143"
           sodipodi:cy="616.11218"
           sodipodi:rx="10.535714"
           sodipodi:ry="13.392858"
           d="m 245.35714,616.11218 c 0,7.39667 -4.717,13.39286 -10.53571,13.39286 -5.81872,0 -10.53572,-5.99619 -10.53572,-13.39286 0,-7.39667 4.717,-13.39285 10.53572,-13.39285 5.81871,0 10.53571,5.99618 10.53571,13.39285 z"
           transform="matrix(0.04561444,0.04906838,-0.06140911,0.25347278,287.78877,422.21975)" />
      </g>
      <g
         id="g3088"
         transform="matrix(0.99415144,-0.10799499,0.09141805,0.84155192,-49.518696,125.32545)">
        <path
           inkscape:connector-curvature="0"
           id="path3090"
           d="m 325.97204,579.41966 c -3.27983,0.7212 -6.294,2.16957 -8.84424,4.37533 -7.9923,6.91269 -8.98285,19.25963 -3.42255,30.53059 l -0.0929,0.0737 c 0,0 7.96864,15.3893 15.46154,23.69636 7.49291,8.30708 14.49744,9.54024 20.83938,10.56652 2.75061,0.44511 7.59333,-0.91425 9.23687,-2.50059 1.64353,-1.58636 1.7649,-5.24103 1.30942,-7.95858 -0.32659,-1.94853 -1.6787,-3.69069 -3.68921,-5.35143 1.93361,-0.0299 3.7656,-0.20669 5.54988,-0.39082 2.71133,-0.27981 6.93577,-2.7467 8.07372,-4.63873 1.13792,-1.89204 0.3007,-5.34898 -0.83641,-7.76454 -0.61953,-1.31607 -1.78091,-2.34748 -3.32327,-3.22938 0.0186,-0.2099 0.0375,-0.41684 0.0508,-0.62828 0.87535,-0.26148 1.72064,-0.54027 2.55321,-0.81864 2.19424,-0.73364 5.20876,-3.56991 5.77935,-5.35209 0.57056,-1.78218 -0.80839,-4.48695 -2.22869,-6.28352 -1.65862,-2.09802 -5.11924,-2.70233 -9.34245,-2.97899 -0.22333,-0.46897 -0.45227,-0.94118 -0.69818,-1.40628 1.08752,-0.76541 2.09303,-1.5874 3.05274,-2.37568 1.6059,-1.31905 3.20559,-4.65075 3.09713,-6.33081 -0.10847,-1.68004 -2.16171,-3.5155 -3.95202,-4.5701 -2.62467,-1.54608 -6.89987,-0.22088 -11.77967,1.4113 -8.23937,-6.99828 -18.36528,-9.92884 -26.79442,-8.07534 z"
           style="fill:#ff1900;fill-opacity:1;stroke:#000000;stroke-width:0.84162414;stroke-miterlimit:4;stroke-opacity:1;stroke-dasharray:none" />
        <path
           transform="matrix(0.31363913,-0.46968546,0.35168102,0.4252878,23.066393,498.36849)"
           inkscape:transform-center-y="-4.2421285"
           inkscape:transform-center-x="1.1347539"
           d="m 322.23867,601.58161 -17.42205,-25.80179 -17.42205,-25.80179 31.05603,-2.18705 31.05603,-2.18704 -13.63398,27.98883 z"
           inkscape:randomized="0"
           inkscape:rounded="0"
           inkscape:flatsided="false"
           sodipodi:arg2="2.5476874"
           sodipodi:arg1="1.5004899"
           sodipodi:r2="17.974613"
           sodipodi:r1="35.949226"
           sodipodi:cy="565.72119"
           sodipodi:cx="319.71329"
           sodipodi:sides="3"
           id="path3092"
           style="fill:#ff1900;fill-opacity:1;stroke:none"
           sodipodi:type="star" />
      </g>
    </g>
    <g
       id="g3094"
       transform="translate(169.27669,2.8786797)">
      <path
         style="fill:#ff1900;fill-opacity:1;stroke:#000000;stroke-width:0.68609852;stroke-miterlimit:4;stroke-opacity:1;stroke-dasharray:none"
         d="m 238.22855,576.34594 c 1.18662,0.42315 2.22246,1.17691 3.03064,2.26995 2.53278,3.42554 2.04695,9.18677 -0.8343,14.2721 l 0.03,0.0367 c 0,0 -4.0761,6.93335 -7.47987,10.59011 -3.40377,3.65678 -6.13101,4.04118 -8.594,4.3473 -1.06823,0.13277 -2.79982,-0.6288 -3.30919,-1.40978 -0.50935,-0.78099 -0.30079,-2.48168 0.0601,-3.73161 0.25877,-0.89622 0.88992,-1.66902 1.76368,-2.38629 -0.36355,-0.033 -0.49399,0.44807 -0.83702,0.3903 -0.34302,-0.0578 -0.89864,-0.0798 -1.27284,-0.36751 -0.81122,-0.62372 -2.38012,-1.81576 -2.67756,-2.72512 -0.29743,-0.90937 0.2589,-2.49244 0.85584,-3.58379 0.32522,-0.59459 1.71884,-1.30758 2.36186,-1.67571 0.008,-0.098 0.19168,0.33574 -0.50573,0.28136 -0.31189,-0.14498 -0.9648,-0.60656 -1.25938,-0.75823 -0.77639,-0.39976 -1.71577,-1.79812 -1.8069,-2.64121 -0.0911,-0.84308 0.61713,-2.06225 1.27779,-2.85848 0.77149,-0.92982 3.36855,-1.11745 4.98039,-1.13238 0.11685,-0.21182 -0.7952,0.26252 -0.67009,0.0531 -0.35683,-0.38474 -0.89754,-1.48104 -1.20459,-1.87297 -0.51378,-0.65583 -0.88514,-2.24626 -0.7273,-3.02366 0.15784,-0.77738 1.05987,-1.57466 1.8084,-2.01634 1.09737,-0.6475 2.61732,0.083 4.34389,0.97225 3.59417,-3.02883 7.61665,-4.11765 10.66628,-3.03013 z"
         id="path3096"
         inkscape:connector-curvature="0"
         sodipodi:nodetypes="csccsscscsscsccccscccscccc" />
      <path
         id="path3098"
         d="m 276.25,513.90625 5.9375,6.40625 -6.21875,-1.90625 L 268.1875,516 l 7.1875,5.125 -3.34375,0.15625 -8.125,0.4375 6.21875,1.6875 c -22.90056,10.68742 -41.5625,49.78165 -41.5625,83.0625 0,38.9558 25.58503,55.1875 53.59375,55.1875 28.00873,0 56.0625,-14.7942 56.0625,-53.75 0,-35.08631 -22.76359,-77.79697 -47.75,-85.9375 l 0.0625,-0.15625 -7.15625,-3.9375 -7.125,-3.96875 z"
         style="fill:#ff1900;fill-opacity:1;fill-rule:evenodd;stroke:#000000;stroke-width:1px;stroke-linecap:butt;stroke-linejoin:miter;stroke-opacity:1"
         inkscape:connector-curvature="0" />
      <path
         id="path3100"
         d="m 232.15625,629.28125 c 7.98273,22.59176 28.25998,32.375 50,32.375 21.82981,0 43.66632,-8.99773 52.25,-31.40625 -12.31383,13.49273 -32.21019,19.125 -52.09375,19.125 -19.87952,0 -38.67994,-6.1904 -50.15625,-20.09375 z"
         style="fill:#000000;fill-opacity:0.15204677;fill-rule:evenodd;stroke:none;filter:url(#filter5402)"
         inkscape:connector-curvature="0" />
      <g
         transform="matrix(0.88350293,0,0,1,26.196318,-2.5253814)"
         id="g3102">
        <g
           transform="translate(-6.6298918,-3.4168918)"
           id="g3104">
          <path
             inkscape:connector-curvature="0"
             id="path3106"
             d="m 277.07517,537.22554 c -6.05448,-1.71173 -21.46488,10.47192 -25.46496,24.10349 -4.57153,15.57894 -5.21504,29.48176 6.26734,32.52501 10.47105,2.77521 17.32296,-6.13654 22.77749,-19.41812 5.45313,13.28617 17.18776,21.50355 27.66087,18.7278 11.48237,-3.04325 17.08958,-18.15413 12.51806,-33.73307 -4.57153,-15.57893 -17.59183,-25.72384 -29.0742,-22.68059 -4.8779,1.29282 -8.67836,4.76125 -11.10473,9.51741 -0.96496,-6.47351 -1.78341,-8.53404 -3.57987,-9.04193 z"
             style="fill:#ffffff;fill-opacity:1;stroke:#000000;stroke-width:1;stroke-miterlimit:4;stroke-opacity:1;stroke-dasharray:none"
             sodipodi:nodetypes="ssscssscs" />
          <g
             transform="translate(-2.2728433,-10.85914)"
             id="g3108">
            <path
               inkscape:connector-curvature="0"
               transform="matrix(0.75612255,0,0,0.80814977,117.08908,73.55842)"
               style="fill:#000002;fill-opacity:1;stroke:#000000;stroke-width:1;stroke-miterlimit:4;stroke-opacity:1"
               d="m 245.35714,616.11218 c 0,7.39667 -4.717,13.39286 -10.53571,13.39286 -5.81872,0 -10.53572,-5.99619 -10.53572,-13.39286 0,-7.39667 4.717,-13.39285 10.53572,-13.39285 5.81871,0 10.53571,5.99618 10.53571,13.39285 z"
               id="path3110" />
            <path
               inkscape:connector-curvature="0"
               transform="matrix(0.16486494,0.06241963,-0.1014265,0.26789126,290.8798,395.83154)"
               style="fill:#ffffff;fill-opacity:1;stroke:none"
               d="m 361.12955,561.42804 c 0,8.92627 -5.99246,16.16244 -13.38452,16.16244 -7.39207,0 -13.38452,-7.23617 -13.38452,-16.16244 0,-8.92627 5.99245,-16.16244 13.38452,-16.16244 7.39206,0 13.38452,7.23617 13.38452,16.16244 z"
               id="path3112" />
          </g>
          <g
             transform="matrix(0.86895066,0.08678111,-0.12713265,0.99367185,102.81504,-32.987174)"
             id="g3114">
            <path
               transform="matrix(0.75612255,0,0,0.80814977,92.08908,73.55842)"
               style="fill:#000002;fill-opacity:1;stroke:#000000;stroke-width:1;stroke-miterlimit:4;stroke-opacity:1"
               d="m 245.35714,616.11218 c 0,7.39667 -4.717,13.39286 -10.53571,13.39286 -5.81872,0 -10.53572,-5.99619 -10.53572,-13.39286 0,-7.39667 4.717,-13.39285 10.53572,-13.39285 5.81871,0 10.53571,5.99618 10.53571,13.39285 z"
               id="path3116"
               inkscape:connector-curvature="0" />
            <path
               transform="matrix(0.16486494,0.06241963,-0.1014265,0.26789126,265.87852,395.32646)"
               style="fill:#ffffff;fill-opacity:1;stroke:none"
               d="m 361.12955,561.42804 c 0,8.92627 -5.99246,16.16244 -13.38452,16.16244 -7.39207,0 -13.38452,-7.23617 -13.38452,-16.16244 0,-8.92627 5.99245,-16.16244 13.38452,-16.16244 7.39206,0 13.38452,7.23617 13.38452,16.16244 z"
               id="path3118"
               inkscape:connector-curvature="0" />
          </g>
          <path
             sodipodi:nodetypes="sscscscsscs"
             inkscape:connector-curvature="0"
             transform="matrix(1.1318582,0,0,1,-23.020624,5.9422732)"
             id="path3120"
             d="m 281,530.28125 c -0.96768,0.0599 -1.92393,0.24595 -2.875,0.53125 -4.30964,1.29282 -7.66879,4.74384 -9.8125,9.5 -0.85254,-6.47351 -1.60032,-8.52336 -3.1875,-9.03125 -4.13657,-1.32371 -13.18046,5.67954 -18.71875,15.21875 2.93212,0.17442 6.56921,1.11733 10.34375,2.84375 4.37745,2.00219 8.03515,4.65078 10.34375,7.21875 2.85841,-3.01322 8.78418,-6.34547 16.15625,-8.75 5.69359,-1.85706 11.17065,-2.79669 15.40625,-2.84375 0.69592,-0.008 1.34563,0.0209 1.96875,0.0625 -4.70543,-9.35178 -12.28877,-15.2039 -19.625,-14.75 z"
             style="fill:#ff1900;fill-opacity:1;stroke:#000000;stroke-width:0.93994838;stroke-miterlimit:4;stroke-opacity:1;stroke-dasharray:none" />
          <path
             id="path3122"
             transform="matrix(1.1318582,0,0,1,-23.020624,5.9422732)"
             d="m 281,530.28125 c -0.96768,0.0599 -1.92393,0.24595 -2.875,0.53125 -4.30964,1.29282 -7.66879,4.74384 -9.8125,9.5 -0.85254,-6.47351 -1.60032,-8.52336 -3.1875,-9.03125 -4.13657,-1.32371 -13.18046,5.67954 -18.71875,15.21875 2.93212,0.17442 6.56921,1.11733 10.34375,2.84375 4.37745,2.00219 8.03515,4.65078 10.34375,7.21875 2.85841,-3.01322 8.78418,-6.34547 16.15625,-8.75 5.69359,-1.85706 11.17065,-2.79669 15.40625,-2.84375 0.69592,-0.008 1.34563,0.0209 1.96875,0.0625 -4.70543,-9.35178 -12.28877,-15.2039 -19.625,-14.75 z"
             style="fill:#ff1900;fill-opacity:1;stroke:#000000;stroke-width:0.93994838;stroke-miterlimit:4;stroke-opacity:1;stroke-dasharray:none"
             inkscape:connector-curvature="0" />
        </g>
      </g>
      <g
         transform="matrix(0.99931082,-0.03711984,0.03711984,0.99931082,-31.429633,8.1383268)"
         id="g3124">
        <path
           transform="matrix(0.82065026,0.11278143,-0.08562051,0.60106538,138.11157,227.73396)"
           style="fill:#f98d02;fill-opacity:1;stroke:#000000;stroke-width:1;stroke-miterlimit:4;stroke-opacity:1;filter:url(#filter5311)"
           inkscape:transform-center-y="7.9000154"
           d="m 194.8903,558.28851 c 0,0 5.5949,0.36743 8.22473,-0.70165 5.3962,-2.19366 7.32935,-11.40691 14.67195,-11.38534 7.21654,0.0212 10.10294,4.78414 18.72736,8.66057 8.62442,3.87644 22.00596,0.50632 22.00596,0.50632 0,0 -0.45497,30.42346 -7.49591,42.63614 -7.16012,12.41943 -34.59238,37.63996 -34.59238,37.63996 0,0 -10.38442,-15.41555 -17.03378,-32.75486 -5.27768,-13.76244 -4.50793,-44.60114 -4.50793,-44.60114 z"
           id="path3126"
           inkscape:connector-curvature="0"
           sodipodi:nodetypes="cacscscsc" />
        <path
           sodipodi:nodetypes="sscscscss"
           style="fill:#f9b702;fill-opacity:1;stroke:none;filter:url(#filter8267)"
           d="m 281.39393,598.5456 c -8.29143,3.25753 -5.15256,4.31331 -13.22514,5.74536 -2.92533,0.51894 -3.37367,1.70052 -7.55385,1.45426 0.494,2.50003 0.91528,7.26597 2.55862,10.58907 5.1344,10.38258 16.25024,23.00782 16.25024,23.00782 0,0 24.28455,-14.59534 30.86231,-22.59397 1.46773,-1.78477 3.06137,-3.89046 4.26947,-9.33769 -2.74969,-0.73003 -10.73429,-0.87554 -15.9174,-1.70748 -8.22135,-1.31959 -11.12244,-9.56251 -17.24425,-7.15737 z"
           id="path3128"
           inkscape:connector-curvature="0"
           transform="matrix(0.89330649,0.12276653,-0.13294248,0.93327081,98.049314,0.26276699)" />
        <path
           inkscape:transform-center-x="0.13169861"
           inkscape:transform-center-y="-1.2526401"
           sodipodi:type="arc"
           style="fill:#000002;fill-opacity:0.70760235;stroke:none"
           id="path3130"
           sodipodi:cx="234.82143"
           sodipodi:cy="616.11218"
           sodipodi:rx="10.535714"
           sodipodi:ry="13.392858"
           d="m 245.35714,616.11218 c 0,7.39667 -4.717,13.39286 -10.53571,13.39286 -5.81872,0 -10.53572,-5.99619 -10.53572,-13.39286 0,-7.39667 4.717,-13.39285 10.53572,-13.39285 5.81871,0 10.53571,5.99618 10.53571,13.39285 z"
           transform="matrix(-0.08141027,0.0282048,0.02031439,0.26929025,282.49794,418.15652)" />
        <path
           style="fill:#ffffff;fill-opacity:0.1988304;stroke:none;filter:url(#filter5386)"
           inkscape:transform-center-x="-1.3671746"
           inkscape:transform-center-y="-0.23996526"
           d="m 287.13586,629.61332 c -1.54227,7.1609 -4.97789,-12.12463 -4.94146,-19.44964 0.0364,-7.32501 -1.27482,-21.59772 5.91768,-22.98518 4.01805,-0.7751 -1.21112,6.5716 0.32988,10.36247 1.54102,3.79088 2.92423,3.24049 2.85526,7.33203 -0.0652,3.86964 -1.13458,7.06826 -2.71203,10.60239 -1.57744,3.53413 0.0611,7.12508 -1.44933,14.13793 z"
           id="path3132"
           inkscape:connector-curvature="0"
           sodipodi:nodetypes="sssssss"
           transform="matrix(0.89260844,0.12774305,-0.13814157,0.93251543,98.671426,1.2771738)" />
        <path
           transform="matrix(0.04561444,0.04906838,-0.06140911,0.25347278,287.78877,422.21975)"
           d="m 245.35714,616.11218 c 0,7.39667 -4.717,13.39286 -10.53571,13.39286 -5.81872,0 -10.53572,-5.99619 -10.53572,-13.39286 0,-7.39667 4.717,-13.39285 10.53572,-13.39285 5.81871,0 10.53571,5.99618 10.53571,13.39285 z"
           sodipodi:ry="13.392858"
           sodipodi:rx="10.535714"
           sodipodi:cy="616.11218"
           sodipodi:cx="234.82143"
           id="path3134"
           style="fill:#000002;fill-opacity:0.70760235;stroke:none"
           sodipodi:type="arc"
           inkscape:transform-center-y="-1.2526401"
           inkscape:transform-center-x="-0.085322184" />
      </g>
      <g
         transform="matrix(0.97630585,-0.20363285,0.16839903,0.60224461,-90.008536,295.27809)"
         id="g3136">
        <path
           style="fill:#ff1900;fill-opacity:1;stroke:#000000;stroke-width:0.84162414;stroke-miterlimit:4;stroke-opacity:1;stroke-dasharray:none"
           d="m 325.97204,579.41966 c -3.27983,0.7212 -6.294,2.16957 -8.84424,4.37533 -7.9923,6.91269 -8.98285,19.25963 -3.42255,30.53059 l -0.0929,0.0737 c 0,0 7.96864,15.3893 15.46154,23.69636 7.49291,8.30708 14.49744,9.54024 20.83938,10.56652 2.75061,0.44511 7.59333,-0.91425 9.23687,-2.50059 1.64353,-1.58636 1.7649,-5.24103 1.30942,-7.95858 -0.32659,-1.94853 -1.6787,-3.69069 -3.68921,-5.35143 0.96681,-0.0149 0.27638,0.99605 1.19911,0.92508 0.92273,-0.071 3.51012,-0.47261 4.40226,-0.56467 2.71133,-0.2798 6.88428,-3.49793 8.02223,-5.38996 1.13792,-1.89204 0.3007,-5.34898 -0.83641,-7.76454 -0.61953,-1.31607 -3.32327,-3.22938 -3.32327,-3.22938 0,0 0.81607,0.4619 1.11459,0.68922 0.42481,-0.13718 1.25132,-0.79928 1.9139,-1.18541 2.1236,-1.23756 4.78428,-4.52064 5.35487,-6.30282 0.57056,-1.78218 -0.80839,-4.48695 -2.22869,-6.28352 -1.65862,-2.09802 -9.76587,-3.12216 -9.76587,-3.12216 l 1.16135,-0.31052 c 0,0 0.73104,-0.57644 1.85629,-2.67645 1.03956,-1.94009 2.96593,-5.30257 2.85747,-6.98263 -0.10847,-1.68004 -2.16171,-3.5155 -3.95202,-4.5701 -2.62467,-1.54608 -6.89987,-0.22088 -11.77967,1.4113 -8.23937,-6.99828 -18.36528,-9.92884 -26.79442,-8.07534 z"
           id="path3138"
           inkscape:connector-curvature="0"
           sodipodi:nodetypes="csccssssccccsccscsccsssccc" />
        <path
           sodipodi:type="star"
           style="fill:#ff1900;fill-opacity:1;stroke:none"
           id="path3140"
           sodipodi:sides="3"
           sodipodi:cx="319.71329"
           sodipodi:cy="565.72119"
           sodipodi:r1="35.949226"
           sodipodi:r2="17.974613"
           sodipodi:arg1="1.5004899"
           sodipodi:arg2="2.5476874"
           inkscape:flatsided="false"
           inkscape:rounded="0"
           inkscape:randomized="0"
           d="m 322.23867,601.58161 -17.42205,-25.80179 -17.42205,-25.80179 31.05603,-2.18705 31.05603,-2.18704 -13.63398,27.98883 z"
           inkscape:transform-center-x="1.1347539"
           inkscape:transform-center-y="-4.2421285"
           transform="matrix(0.31363913,-0.46968546,0.35168102,0.4252878,23.066393,498.36849)" />
      </g>
    </g>
    <g
       transform="translate(-189.22331,168.87868)"
       id="g3142">
      <path
         sodipodi:nodetypes="csccsscscsscsccccscccscccc"
         inkscape:connector-curvature="0"
         id="path3144"
         d="m 239.95114,577.45673 c 1.13013,0.5146 2.07285,1.28556 2.75084,2.30973 2.1248,3.20972 0.98591,7.96652 -2.45465,11.83375 l 0.0256,0.0348 c 0,0 -4.83765,5.25262 -8.63431,7.85343 -3.79668,2.60082 -6.54869,2.55395 -9.02937,2.47726 -1.07591,-0.0333 -2.70863,-0.90481 -3.12546,-1.62738 -0.41681,-0.72258 -0.0159,-2.11796 0.48483,-3.11543 0.35909,-0.71522 1.07388,-1.27678 2.02328,-1.75906 -0.35726,-0.0768 -1.02038,1.03436 -1.35443,0.93963 -0.33404,-0.0947 -0.77897,-0.62621 -1.11777,-0.91762 -0.73449,-0.63174 -1.78216,-2.12974 -1.9739,-2.93114 -0.19174,-0.80139 0.54108,-2.0513 1.2582,-2.88414 0.3907,-0.45374 1.85583,-0.86218 2.53632,-1.08339 0.0191,-0.081 -0.77095,0.5204 -1.4573,0.38061 -0.29319,-0.16351 -0.79255,-0.36127 -1.06779,-0.52804 -0.72542,-0.43957 -0.67229,-2.22739 -0.66672,-2.94542 0.006,-0.71802 0.8478,-1.64279 1.59458,-2.21998 0.87205,-0.67402 3.47236,-0.48003 5.07465,-0.27465 0.14017,-0.16151 -2.09729,-0.024 -1.94918,-0.18237 -0.31051,-0.37029 -0.38152,-1.23926 -0.64177,-1.60883 -0.43547,-0.61842 0.31366,-1.98542 0.55901,-2.61481 0.24531,-0.62937 1.23189,-1.17481 2.02552,-1.44334 1.16349,-0.39366 2.40398,0.47336 4.27329,0.88309 4.41638,-0.81307 7.96217,-1.89923 10.8666,-0.57669 z"
         style="fill:#ff1900;fill-opacity:1;stroke:#000000;stroke-width:1;stroke-miterlimit:4;stroke-opacity:1;stroke-dasharray:none" />
      <path
         inkscape:connector-curvature="0"
         style="fill:#ff1900;fill-opacity:1;fill-rule:evenodd;stroke:#000000;stroke-width:1px;stroke-linecap:butt;stroke-linejoin:miter;stroke-opacity:1"
         d="m 276.25,513.90625 5.9375,6.40625 -6.21875,-1.90625 L 268.1875,516 l 7.1875,5.125 -3.34375,0.15625 -8.125,0.4375 6.21875,1.6875 c -22.90056,10.68742 -41.5625,49.78165 -41.5625,83.0625 0,38.9558 25.58503,55.1875 53.59375,55.1875 28.00873,0 56.0625,-14.7942 56.0625,-53.75 0,-35.08631 -22.76359,-77.79697 -47.75,-85.9375 l 0.0625,-0.15625 -7.15625,-3.9375 -7.125,-3.96875 z"
         id="path3146" />
      <path
         inkscape:connector-curvature="0"
         style="fill:#000000;fill-opacity:0.15204677;fill-rule:evenodd;stroke:none;filter:url(#filter5402)"
         d="m 232.15625,629.28125 c 7.98273,22.59176 28.25998,32.375 50,32.375 21.82981,0 43.66632,-8.99773 52.25,-31.40625 -12.31383,13.49273 -32.21019,19.125 -52.09375,19.125 -19.87952,0 -38.67994,-6.1904 -50.15625,-20.09375 z"
         id="path3148" />
      <g
         id="g3150"
         transform="matrix(0.88350293,0,0,1,26.196318,-2.5253814)">
        <g
           id="g3152"
           transform="translate(-6.6298918,-3.4168918)">
          <path
             sodipodi:nodetypes="ssscssscs"
             style="fill:#ffffff;fill-opacity:1;stroke:#000000;stroke-width:1;stroke-miterlimit:4;stroke-opacity:1;stroke-dasharray:none"
             d="m 277.07517,537.22554 c -6.05448,-1.71173 -21.46488,10.47192 -25.46496,24.10349 -4.57153,15.57894 -5.21504,29.48176 6.26734,32.52501 10.47105,2.77521 17.32296,-6.13654 22.77749,-19.41812 5.45313,13.28617 17.18776,21.50355 27.66087,18.7278 11.48237,-3.04325 17.08958,-18.15413 12.51806,-33.73307 -4.57153,-15.57893 -17.59183,-25.72384 -29.0742,-22.68059 -4.8779,1.29282 -8.67836,4.76125 -11.10473,9.51741 -0.96496,-6.47351 -1.78341,-8.53404 -3.57987,-9.04193 z"
             id="path3154"
             inkscape:connector-curvature="0" />
          <g
             id="g3156"
             transform="translate(-2.2728433,-10.85914)">
            <path
               id="path3158"
               d="m 245.35714,616.11218 c 0,7.39667 -4.717,13.39286 -10.53571,13.39286 -5.81872,0 -10.53572,-5.99619 -10.53572,-13.39286 0,-7.39667 4.717,-13.39285 10.53572,-13.39285 5.81871,0 10.53571,5.99618 10.53571,13.39285 z"
               style="fill:#000002;fill-opacity:1;stroke:#000000;stroke-width:1;stroke-miterlimit:4;stroke-opacity:1"
               transform="matrix(0.75612255,0,0,0.80814977,117.08908,73.55842)"
               inkscape:connector-curvature="0" />
            <path
               id="path3160"
               d="m 361.12955,561.42804 c 0,8.92627 -5.99246,16.16244 -13.38452,16.16244 -7.39207,0 -13.38452,-7.23617 -13.38452,-16.16244 0,-8.92627 5.99245,-16.16244 13.38452,-16.16244 7.39206,0 13.38452,7.23617 13.38452,16.16244 z"
               style="fill:#ffffff;fill-opacity:1;stroke:none"
               transform="matrix(0.16486494,0.06241963,-0.1014265,0.26789126,290.8798,395.83154)"
               inkscape:connector-curvature="0" />
          </g>
          <g
             id="g3162"
             transform="matrix(0.86895066,0.08678111,-0.12713265,0.99367185,102.81504,-32.987174)">
            <path
               inkscape:connector-curvature="0"
               id="path3164"
               d="m 245.35714,616.11218 c 0,7.39667 -4.717,13.39286 -10.53571,13.39286 -5.81872,0 -10.53572,-5.99619 -10.53572,-13.39286 0,-7.39667 4.717,-13.39285 10.53572,-13.39285 5.81871,0 10.53571,5.99618 10.53571,13.39285 z"
               style="fill:#000002;fill-opacity:1;stroke:#000000;stroke-width:1;stroke-miterlimit:4;stroke-opacity:1"
               transform="matrix(0.75612255,0,0,0.80814977,92.08908,73.55842)" />
            <path
               inkscape:connector-curvature="0"
               id="path3166"
               d="m 361.12955,561.42804 c 0,8.92627 -5.99246,16.16244 -13.38452,16.16244 -7.39207,0 -13.38452,-7.23617 -13.38452,-16.16244 0,-8.92627 5.99245,-16.16244 13.38452,-16.16244 7.39206,0 13.38452,7.23617 13.38452,16.16244 z"
               style="fill:#ffffff;fill-opacity:1;stroke:none"
               transform="matrix(0.16486494,0.06241963,-0.1014265,0.26789126,265.87852,395.32646)" />
          </g>
          <path
             style="fill:#ff1900;fill-opacity:1;stroke:#000000;stroke-width:0.93994838;stroke-miterlimit:4;stroke-opacity:1;stroke-dasharray:none"
             d="m 281,530.28125 c -0.96768,0.0599 -1.92393,0.24595 -2.875,0.53125 -4.30964,1.29282 -7.66879,4.74384 -9.8125,9.5 -0.85254,-6.47351 -1.60032,-8.52336 -3.1875,-9.03125 -4.13657,-1.32371 -13.18046,5.67954 -18.71875,15.21875 2.93212,0.17442 6.56921,1.11733 10.34375,2.84375 4.37745,2.00219 8.03515,4.65078 10.34375,7.21875 2.85841,-3.01322 8.78418,-6.34547 16.15625,-8.75 5.69359,-1.85706 11.17065,-2.79669 15.40625,-2.84375 0.69592,-0.008 1.34563,0.0209 1.96875,0.0625 -4.70543,-9.35178 -12.28877,-15.2039 -19.625,-14.75 z"
             id="path3168"
             transform="matrix(1.1318582,0,0,1,-23.020624,5.9422732)"
             inkscape:connector-curvature="0"
             sodipodi:nodetypes="sscscscsscs" />
          <path
             inkscape:connector-curvature="0"
             style="fill:#ff1900;fill-opacity:1;stroke:#000000;stroke-width:0.93994838;stroke-miterlimit:4;stroke-opacity:1;stroke-dasharray:none"
             d="m 281,530.28125 c -0.96768,0.0599 -1.92393,0.24595 -2.875,0.53125 -4.30964,1.29282 -7.66879,4.74384 -9.8125,9.5 -0.85254,-6.47351 -1.60032,-8.52336 -3.1875,-9.03125 -4.13657,-1.32371 -13.18046,5.67954 -18.71875,15.21875 2.93212,0.17442 6.56921,1.11733 10.34375,2.84375 4.37745,2.00219 8.03515,4.65078 10.34375,7.21875 2.85841,-3.01322 8.78418,-6.34547 16.15625,-8.75 5.69359,-1.85706 11.17065,-2.79669 15.40625,-2.84375 0.69592,-0.008 1.34563,0.0209 1.96875,0.0625 -4.70543,-9.35178 -12.28877,-15.2039 -19.625,-14.75 z"
             transform="matrix(1.1318582,0,0,1,-23.020624,5.9422732)"
             id="path3170" />
        </g>
      </g>
      <g
         id="g3172"
         transform="matrix(0.99931082,-0.03711984,0.03711984,0.99931082,-31.429633,8.1383268)">
        <path
           sodipodi:nodetypes="cacscscsc"
           inkscape:connector-curvature="0"
           id="path3174"
           d="m 194.8903,558.28851 c 0,0 5.5949,0.36743 8.22473,-0.70165 5.3962,-2.19366 7.32935,-11.40691 14.67195,-11.38534 7.21654,0.0212 10.10294,4.78414 18.72736,8.66057 8.62442,3.87644 22.00596,0.50632 22.00596,0.50632 0,0 -0.45497,30.42346 -7.49591,42.63614 -7.16012,12.41943 -34.59238,37.63996 -34.59238,37.63996 0,0 -10.38442,-15.41555 -17.03378,-32.75486 -5.27768,-13.76244 -4.50793,-44.60114 -4.50793,-44.60114 z"
           inkscape:transform-center-y="7.9000154"
           style="fill:#f98d02;fill-opacity:1;stroke:#000000;stroke-width:1;stroke-miterlimit:4;stroke-opacity:1;filter:url(#filter5311)"
           transform="matrix(0.82065026,0.11278143,-0.08562051,0.60106538,138.11157,227.73396)" />
        <path
           transform="matrix(0.89330649,0.12276653,-0.13294248,0.93327081,98.049314,0.26276699)"
           inkscape:connector-curvature="0"
           id="path3176"
           d="m 281.39393,598.5456 c -8.29143,3.25753 -5.15256,4.31331 -13.22514,5.74536 -2.92533,0.51894 -3.37367,1.70052 -7.55385,1.45426 0.494,2.50003 0.91528,7.26597 2.55862,10.58907 5.1344,10.38258 16.25024,23.00782 16.25024,23.00782 0,0 24.28455,-14.59534 30.86231,-22.59397 1.46773,-1.78477 3.06137,-3.89046 4.26947,-9.33769 -2.74969,-0.73003 -10.73429,-0.87554 -15.9174,-1.70748 -8.22135,-1.31959 -11.12244,-9.56251 -17.24425,-7.15737 z"
           style="fill:#f9b702;fill-opacity:1;stroke:none;filter:url(#filter8267)"
           sodipodi:nodetypes="sscscscss" />
        <path
           transform="matrix(-0.08141027,0.0282048,0.02031439,0.26929025,282.49794,418.15652)"
           d="m 245.35714,616.11218 c 0,7.39667 -4.717,13.39286 -10.53571,13.39286 -5.81872,0 -10.53572,-5.99619 -10.53572,-13.39286 0,-7.39667 4.717,-13.39285 10.53572,-13.39285 5.81871,0 10.53571,5.99618 10.53571,13.39285 z"
           sodipodi:ry="13.392858"
           sodipodi:rx="10.535714"
           sodipodi:cy="616.11218"
           sodipodi:cx="234.82143"
           id="path3178"
           style="fill:#000002;fill-opacity:0.70760235;stroke:none"
           sodipodi:type="arc"
           inkscape:transform-center-y="-1.2526401"
           inkscape:transform-center-x="0.13169861" />
        <path
           transform="matrix(0.89260844,0.12774305,-0.13814157,0.93251543,98.671426,1.2771738)"
           sodipodi:nodetypes="sssssss"
           inkscape:connector-curvature="0"
           id="path3180"
           d="m 287.13586,629.61332 c -1.54227,7.1609 -4.97789,-12.12463 -4.94146,-19.44964 0.0364,-7.32501 -1.27482,-21.59772 5.91768,-22.98518 4.01805,-0.7751 -1.21112,6.5716 0.32988,10.36247 1.54102,3.79088 2.92423,3.24049 2.85526,7.33203 -0.0652,3.86964 -1.13458,7.06826 -2.71203,10.60239 -1.57744,3.53413 0.0611,7.12508 -1.44933,14.13793 z"
           inkscape:transform-center-y="-0.23996526"
           inkscape:transform-center-x="-1.3671746"
           style="fill:#ffffff;fill-opacity:0.1988304;stroke:none;filter:url(#filter5386)" />
        <path
           inkscape:transform-center-x="-0.085322184"
           inkscape:transform-center-y="-1.2526401"
           sodipodi:type="arc"
           style="fill:#000002;fill-opacity:0.70760235;stroke:none"
           id="path3182"
           sodipodi:cx="234.82143"
           sodipodi:cy="616.11218"
           sodipodi:rx="10.535714"
           sodipodi:ry="13.392858"
           d="m 245.35714,616.11218 c 0,7.39667 -4.717,13.39286 -10.53571,13.39286 -5.81872,0 -10.53572,-5.99619 -10.53572,-13.39286 0,-7.39667 4.717,-13.39285 10.53572,-13.39285 5.81871,0 10.53571,5.99618 10.53571,13.39285 z"
           transform="matrix(0.04561444,0.04906838,-0.06140911,0.25347278,287.78877,422.21975)" />
      </g>
      <g
         id="g3184"
         transform="matrix(0.97630585,-0.16553097,0.16839903,0.4895582,-90.008536,346.72016)"
         style="stroke-width:1.40603484;stroke-miterlimit:4;stroke-dasharray:none">
        <path
           sodipodi:nodetypes="csccssssccccsccscsccsssccc"
           inkscape:connector-curvature="0"
           id="path3186"
           d="m 322.29154,587.00217 c -3.24506,1.95669 -6.14388,4.49861 -8.49244,7.57735 -7.36027,9.64855 -7.0526,21.7221 -0.22481,30.23258 l -0.0863,0.10585 c 0,0 9.70405,11.47386 18.17439,16.42777 8.47035,4.95392 15.69508,3.40069 22.22681,1.90896 2.83293,-0.647 7.59305,-3.81488 9.08912,-5.95504 1.49606,-2.14018 1.23097,-5.64718 0.48116,-8.04296 -0.53762,-1.71782 -2.09192,-2.84193 -4.30438,-3.63324 0.97756,-0.38963 2.4093,1.7004 3.33625,1.27481 0.92695,-0.42562 1.92999,-1.07941 2.82373,-1.51309 2.71618,-1.318 6.15171,-7.58161 7.10329,-9.81479 0.95155,-2.23317 -0.26336,-5.18066 -1.67141,-7.02579 -0.76715,-1.00528 -3.70849,-1.76643 -3.70849,-1.76643 0,0 1.87262,0.63799 2.19908,0.73724 0.41566,-0.29487 1.38292,-1.35545 2.01296,-1.97836 2.01927,-1.99643 3.16769,-6.5429 3.55634,-8.45171 0.38862,-1.9088 -1.29506,-3.93379 -2.9242,-5.08293 -1.9025,-1.34196 -10.22182,0.83747 -10.22182,0.83747 l 2.5119,-0.28226 c 0,0 0.62304,-1.02918 1.53968,-3.45432 0.84683,-2.24046 1.12818,-6.43521 0.83997,-7.98359 -0.28822,-1.54835 -2.5625,-2.48847 -4.48759,-2.79147 -2.82227,-0.44421 -6.53562,4.43721 -11.63284,5.05849 -9.2694,-1.31994 -19.80061,-1.41326 -28.14041,3.61545 z"
           style="fill:#ff1900;fill-opacity:1;stroke:#000000;stroke-width:1.40603484;stroke-miterlimit:4;stroke-opacity:1;stroke-dasharray:none" />
        <path
           transform="matrix(0.34223416,-0.5216564,0.38022648,0.46774112,-1.9212953,498.26065)"
           inkscape:transform-center-y="-4.6963023"
           inkscape:transform-center-x="1.2305137"
           d="m 322.23867,601.58161 -17.42205,-25.80179 -17.42205,-25.80179 31.05603,-2.18705 31.05603,-2.18704 -13.63398,27.98883 z"
           inkscape:randomized="0"
           inkscape:rounded="0"
           inkscape:flatsided="false"
           sodipodi:arg2="2.5476874"
           sodipodi:arg1="1.5004899"
           sodipodi:r2="17.974613"
           sodipodi:r1="35.949226"
           sodipodi:cy="565.72119"
           sodipodi:cx="319.71329"
           sodipodi:sides="3"
           id="path3188"
           style="fill:#ff1900;fill-opacity:1;stroke:none;stroke-width:2.34853587;stroke-miterlimit:4;stroke-dasharray:none"
           sodipodi:type="star" />
      </g>
    </g>
    <g
       id="g3958"
       transform="translate(-2.5471206,170.29289)">
      <path
         style="fill:#ff1900;fill-opacity:1;stroke:#000000;stroke-width:0.87743843;stroke-miterlimit:4;stroke-opacity:1;stroke-dasharray:none"
         d="m 241.98165,579.86744 c 1.00146,0.66465 1.77163,1.47268 2.2359,2.40241 1.45502,2.91375 -0.56083,6.15927 -4.64649,8.16876 l 0.0182,0.0323 c 0,0 -5.70942,2.68821 -9.89993,3.66869 -4.19054,0.9805 -6.85937,0.25726 -9.25849,-0.42024 -1.04054,-0.29385 -2.46291,-1.34914 -2.73062,-1.98969 -0.26769,-0.64056 0.38865,-1.5759 1.06623,-2.19095 0.48588,-0.44098 1.28853,-0.67895 2.30435,-0.79939 -0.33295,-0.14641 -1.19023,0.51243 -1.49719,0.35855 -0.30695,-0.15387 -0.63846,-0.65963 -0.91251,-0.96067 -0.59413,-0.65261 -1.3277,-2.02649 -1.36135,-2.66924 -0.0336,-0.64275 0.91791,-1.38709 1.77461,-1.82581 0.46673,-0.23902 1.97028,-0.17564 2.67462,-0.16959 0.0341,-0.0554 -0.84945,0.19338 -1.49062,-0.0821 -0.25408,-0.1947 -0.70223,-0.46639 -0.93822,-0.65901 -0.62198,-0.50773 -0.22913,-1.82133 -0.0867,-2.35284 0.14282,-0.53142 1.13839,-1.00717 1.97517,-1.24873 0.97714,-0.28209 3.47028,0.51239 4.99015,1.06566 0.16722,-0.0848 -2.03613,-0.54249 -1.86179,-0.62298 -0.23147,-0.3525 -0.13475,-1.0152 -0.31747,-1.35459 -0.30571,-0.56792 0.68405,-1.39508 1.04288,-1.80082 0.35878,-0.40575 1.42283,-0.56376 2.24629,-0.56452 1.20722,-10e-4 2.2488,0.95271 3.9895,1.72445 4.45239,0.50137 8.10978,0.58226 10.68349,2.29043 z"
         id="path3960"
         inkscape:connector-curvature="0"
         sodipodi:nodetypes="csccsscscsscsccccscccscccc" />
      <path
         id="path3962"
         d="m 276.25,513.90625 5.9375,6.40625 -6.21875,-1.90625 L 268.1875,516 l 7.1875,5.125 -3.34375,0.15625 -8.125,0.4375 6.21875,1.6875 c -22.90056,10.68742 -41.5625,49.78165 -41.5625,83.0625 0,38.9558 25.58503,55.1875 53.59375,55.1875 28.00873,0 56.0625,-14.7942 56.0625,-53.75 0,-35.08631 -22.76359,-77.79697 -47.75,-85.9375 l 0.0625,-0.15625 -7.15625,-3.9375 -7.125,-3.96875 z"
         style="fill:#ff1900;fill-opacity:1;fill-rule:evenodd;stroke:#000000;stroke-width:1px;stroke-linecap:butt;stroke-linejoin:miter;stroke-opacity:1"
         inkscape:connector-curvature="0" />
      <path
         id="path3964"
         d="m 232.15625,629.28125 c 7.98273,22.59176 28.25998,32.375 50,32.375 21.82981,0 43.66632,-8.99773 52.25,-31.40625 -12.31383,13.49273 -32.21019,19.125 -52.09375,19.125 -19.87952,0 -38.67994,-6.1904 -50.15625,-20.09375 z"
         style="fill:#000000;fill-opacity:0.15204677;fill-rule:evenodd;stroke:none;filter:url(#filter5402)"
         inkscape:connector-curvature="0" />
      <g
         transform="matrix(0.88350293,0,0,1,26.196318,-2.5253814)"
         id="g3966">
        <g
           transform="translate(-6.6298918,-3.4168918)"
           id="g3968">
          <path
             inkscape:connector-curvature="0"
             id="path3970"
             d="m 277.07517,537.22554 c -6.05448,-1.71173 -21.46488,10.47192 -25.46496,24.10349 -4.57153,15.57894 -5.21504,29.48176 6.26734,32.52501 10.47105,2.77521 17.32296,-6.13654 22.77749,-19.41812 5.45313,13.28617 17.18776,21.50355 27.66087,18.7278 11.48237,-3.04325 17.08958,-18.15413 12.51806,-33.73307 -4.57153,-15.57893 -17.59183,-25.72384 -29.0742,-22.68059 -4.8779,1.29282 -8.67836,4.76125 -11.10473,9.51741 -0.96496,-6.47351 -1.78341,-8.53404 -3.57987,-9.04193 z"
             style="fill:#ffffff;fill-opacity:1;stroke:#000000;stroke-width:1;stroke-miterlimit:4;stroke-opacity:1;stroke-dasharray:none"
             sodipodi:nodetypes="ssscssscs" />
          <g
             transform="translate(-2.2728433,-10.85914)"
             id="g3972">
            <path
               inkscape:connector-curvature="0"
               transform="matrix(0.75612255,0,0,0.80814977,117.08908,73.55842)"
               style="fill:#000002;fill-opacity:1;stroke:#000000;stroke-width:1;stroke-miterlimit:4;stroke-opacity:1"
               d="m 245.35714,616.11218 c 0,7.39667 -4.717,13.39286 -10.53571,13.39286 -5.81872,0 -10.53572,-5.99619 -10.53572,-13.39286 0,-7.39667 4.717,-13.39285 10.53572,-13.39285 5.81871,0 10.53571,5.99618 10.53571,13.39285 z"
               id="path3974" />
            <path
               inkscape:connector-curvature="0"
               transform="matrix(0.16486494,0.06241963,-0.1014265,0.26789126,290.8798,395.83154)"
               style="fill:#ffffff;fill-opacity:1;stroke:none"
               d="m 361.12955,561.42804 c 0,8.92627 -5.99246,16.16244 -13.38452,16.16244 -7.39207,0 -13.38452,-7.23617 -13.38452,-16.16244 0,-8.92627 5.99245,-16.16244 13.38452,-16.16244 7.39206,0 13.38452,7.23617 13.38452,16.16244 z"
               id="path3976" />
          </g>
          <g
             transform="matrix(0.86895066,0.08678111,-0.12713265,0.99367185,102.81504,-32.987174)"
             id="g3978">
            <path
               transform="matrix(0.75612255,0,0,0.80814977,92.08908,73.55842)"
               style="fill:#000002;fill-opacity:1;stroke:#000000;stroke-width:1;stroke-miterlimit:4;stroke-opacity:1"
               d="m 245.35714,616.11218 c 0,7.39667 -4.717,13.39286 -10.53571,13.39286 -5.81872,0 -10.53572,-5.99619 -10.53572,-13.39286 0,-7.39667 4.717,-13.39285 10.53572,-13.39285 5.81871,0 10.53571,5.99618 10.53571,13.39285 z"
               id="path3980"
               inkscape:connector-curvature="0" />
            <path
               transform="matrix(0.16486494,0.06241963,-0.1014265,0.26789126,265.87852,395.32646)"
               style="fill:#ffffff;fill-opacity:1;stroke:none"
               d="m 361.12955,561.42804 c 0,8.92627 -5.99246,16.16244 -13.38452,16.16244 -7.39207,0 -13.38452,-7.23617 -13.38452,-16.16244 0,-8.92627 5.99245,-16.16244 13.38452,-16.16244 7.39206,0 13.38452,7.23617 13.38452,16.16244 z"
               id="path3982"
               inkscape:connector-curvature="0" />
          </g>
          <path
             sodipodi:nodetypes="sscscscsscs"
             inkscape:connector-curvature="0"
             transform="matrix(1.1318582,0,0,1,-23.020624,5.9422732)"
             id="path3984"
             d="m 281,530.28125 c -0.96768,0.0599 -1.92393,0.24595 -2.875,0.53125 -4.30964,1.29282 -7.66879,4.74384 -9.8125,9.5 -0.85254,-6.47351 -1.60032,-8.52336 -3.1875,-9.03125 -4.13657,-1.32371 -13.18046,5.67954 -18.71875,15.21875 2.93212,0.17442 6.56921,1.11733 10.34375,2.84375 4.37745,2.00219 8.03515,4.65078 10.34375,7.21875 2.85841,-3.01322 8.78418,-6.34547 16.15625,-8.75 5.69359,-1.85706 11.17065,-2.79669 15.40625,-2.84375 0.69592,-0.008 1.34563,0.0209 1.96875,0.0625 -4.70543,-9.35178 -12.28877,-15.2039 -19.625,-14.75 z"
             style="fill:#ff1900;fill-opacity:1;stroke:#000000;stroke-width:0.93994838;stroke-miterlimit:4;stroke-opacity:1;stroke-dasharray:none" />
          <path
             id="path3986"
             transform="matrix(1.1318582,0,0,1,-23.020624,5.9422732)"
             d="m 281,530.28125 c -0.96768,0.0599 -1.92393,0.24595 -2.875,0.53125 -4.30964,1.29282 -7.66879,4.74384 -9.8125,9.5 -0.85254,-6.47351 -1.60032,-8.52336 -3.1875,-9.03125 -4.13657,-1.32371 -13.18046,5.67954 -18.71875,15.21875 2.93212,0.17442 6.56921,1.11733 10.34375,2.84375 4.37745,2.00219 8.03515,4.65078 10.34375,7.21875 2.85841,-3.01322 8.78418,-6.34547 16.15625,-8.75 5.69359,-1.85706 11.17065,-2.79669 15.40625,-2.84375 0.69592,-0.008 1.34563,0.0209 1.96875,0.0625 -4.70543,-9.35178 -12.28877,-15.2039 -19.625,-14.75 z"
             style="fill:#ff1900;fill-opacity:1;stroke:#000000;stroke-width:0.93994838;stroke-miterlimit:4;stroke-opacity:1;stroke-dasharray:none"
             inkscape:connector-curvature="0" />
        </g>
      </g>
      <g
         transform="matrix(0.99931082,-0.03711984,0.03711984,0.99931082,-31.429633,8.1383268)"
         id="g3988">
        <path
           transform="matrix(0.82065026,0.11278143,-0.08562051,0.60106538,138.11157,227.73396)"
           style="fill:#f98d02;fill-opacity:1;stroke:#000000;stroke-width:1;stroke-miterlimit:4;stroke-opacity:1;filter:url(#filter5311)"
           inkscape:transform-center-y="7.9000154"
           d="m 194.8903,558.28851 c 0,0 5.5949,0.36743 8.22473,-0.70165 5.3962,-2.19366 7.32935,-11.40691 14.67195,-11.38534 7.21654,0.0212 10.10294,4.78414 18.72736,8.66057 8.62442,3.87644 22.00596,0.50632 22.00596,0.50632 0,0 -0.45497,30.42346 -7.49591,42.63614 -7.16012,12.41943 -34.59238,37.63996 -34.59238,37.63996 0,0 -10.38442,-15.41555 -17.03378,-32.75486 -5.27768,-13.76244 -4.50793,-44.60114 -4.50793,-44.60114 z"
           id="path3990"
           inkscape:connector-curvature="0"
           sodipodi:nodetypes="cacscscsc" />
        <path
           sodipodi:nodetypes="sscscscss"
           style="fill:#f9b702;fill-opacity:1;stroke:none;filter:url(#filter8267)"
           d="m 281.39393,598.5456 c -8.29143,3.25753 -5.15256,4.31331 -13.22514,5.74536 -2.92533,0.51894 -3.37367,1.70052 -7.55385,1.45426 0.494,2.50003 0.91528,7.26597 2.55862,10.58907 5.1344,10.38258 16.25024,23.00782 16.25024,23.00782 0,0 24.28455,-14.59534 30.86231,-22.59397 1.46773,-1.78477 3.06137,-3.89046 4.26947,-9.33769 -2.74969,-0.73003 -10.73429,-0.87554 -15.9174,-1.70748 -8.22135,-1.31959 -11.12244,-9.56251 -17.24425,-7.15737 z"
           id="path3992"
           inkscape:connector-curvature="0"
           transform="matrix(0.89330649,0.12276653,-0.13294248,0.93327081,98.049314,0.26276699)" />
        <path
           inkscape:transform-center-x="0.13169861"
           inkscape:transform-center-y="-1.2526401"
           sodipodi:type="arc"
           style="fill:#000002;fill-opacity:0.70760235;stroke:none"
           id="path3994"
           sodipodi:cx="234.82143"
           sodipodi:cy="616.11218"
           sodipodi:rx="10.535714"
           sodipodi:ry="13.392858"
           d="m 245.35714,616.11218 c 0,7.39667 -4.717,13.39286 -10.53571,13.39286 -5.81872,0 -10.53572,-5.99619 -10.53572,-13.39286 0,-7.39667 4.717,-13.39285 10.53572,-13.39285 5.81871,0 10.53571,5.99618 10.53571,13.39285 z"
           transform="matrix(-0.08141027,0.0282048,0.02031439,0.26929025,282.49794,418.15652)" />
        <path
           style="fill:#ffffff;fill-opacity:0.1988304;stroke:none;filter:url(#filter5386)"
           inkscape:transform-center-x="-1.3671746"
           inkscape:transform-center-y="-0.23996526"
           d="m 287.13586,629.61332 c -1.54227,7.1609 -4.97789,-12.12463 -4.94146,-19.44964 0.0364,-7.32501 -1.27482,-21.59772 5.91768,-22.98518 4.01805,-0.7751 -1.21112,6.5716 0.32988,10.36247 1.54102,3.79088 2.92423,3.24049 2.85526,7.33203 -0.0652,3.86964 -1.13458,7.06826 -2.71203,10.60239 -1.57744,3.53413 0.0611,7.12508 -1.44933,14.13793 z"
           id="path3996"
           inkscape:connector-curvature="0"
           sodipodi:nodetypes="sssssss"
           transform="matrix(0.89260844,0.12774305,-0.13814157,0.93251543,98.671426,1.2771738)" />
        <path
           transform="matrix(0.04561444,0.04906838,-0.06140911,0.25347278,287.78877,422.21975)"
           d="m 245.35714,616.11218 c 0,7.39667 -4.717,13.39286 -10.53571,13.39286 -5.81872,0 -10.53572,-5.99619 -10.53572,-13.39286 0,-7.39667 4.717,-13.39285 10.53572,-13.39285 5.81871,0 10.53571,5.99618 10.53571,13.39285 z"
           sodipodi:ry="13.392858"
           sodipodi:rx="10.535714"
           sodipodi:cy="616.11218"
           sodipodi:cx="234.82143"
           id="path3998"
           style="fill:#000002;fill-opacity:0.70760235;stroke:none"
           sodipodi:type="arc"
           inkscape:transform-center-y="-1.2526401"
           inkscape:transform-center-x="-0.085322184" />
      </g>
      <g
         style="stroke-width:1.40603483;stroke-miterlimit:4;stroke-dasharray:none"
         transform="matrix(0.93892583,-0.2979498,0.23290653,0.35271315,-116.50585,470.99142)"
         id="g4000">
        <path
           style="fill:#ff1900;fill-opacity:1;stroke:#000000;stroke-width:1.40603483;stroke-miterlimit:4;stroke-opacity:1;stroke-dasharray:none"
           d="m 322.29154,587.00217 c -3.24506,1.95669 -6.14388,4.49861 -8.49244,7.57735 -7.36027,9.64855 -7.0526,21.7221 -0.22481,30.23258 l -0.0863,0.10585 c 0,0 9.70405,11.47386 18.17439,16.42777 8.47035,4.95392 15.69508,3.40069 22.22681,1.90896 2.83293,-0.647 7.59305,-3.81488 9.08912,-5.95504 1.49606,-2.14018 1.23097,-5.64718 0.48116,-8.04296 -0.53762,-1.71782 -2.09192,-2.84193 -4.30438,-3.63324 0.97756,-0.38963 2.4093,1.7004 3.33625,1.27481 0.92695,-0.42562 1.92999,-1.07941 2.82373,-1.51309 2.71618,-1.318 6.15171,-7.58161 7.10329,-9.81479 0.95155,-2.23317 -0.26336,-5.18066 -1.67141,-7.02579 -0.76715,-1.00528 -3.70849,-1.76643 -3.70849,-1.76643 0,0 1.87262,0.63799 2.19908,0.73724 0.41566,-0.29487 1.38292,-1.35545 2.01296,-1.97836 2.01927,-1.99643 3.16769,-6.5429 3.55634,-8.45171 0.38862,-1.9088 -1.29506,-3.93379 -2.9242,-5.08293 -1.9025,-1.34196 -10.22182,0.83747 -10.22182,0.83747 l 2.5119,-0.28226 c 0,0 0.62304,-1.02918 1.53968,-3.45432 0.84683,-2.24046 1.12818,-6.43521 0.83997,-7.98359 -0.28822,-1.54835 -2.5625,-2.48847 -4.48759,-2.79147 -2.82227,-0.44421 -6.53562,4.43721 -11.63284,5.05849 -9.2694,-1.31994 -19.80061,-1.41326 -28.14041,3.61545 z"
           id="path4002"
           inkscape:connector-curvature="0"
           sodipodi:nodetypes="csccssssccccsccscsccsssccc" />
        <path
           sodipodi:type="star"
           style="fill:#ff1900;fill-opacity:1;stroke:none"
           id="path4004"
           sodipodi:sides="3"
           sodipodi:cx="319.71329"
           sodipodi:cy="565.72119"
           sodipodi:r1="35.949226"
           sodipodi:r2="17.974613"
           sodipodi:arg1="1.5004899"
           sodipodi:arg2="2.5476874"
           inkscape:flatsided="false"
           inkscape:rounded="0"
           inkscape:randomized="0"
           d="m 322.23867,601.58161 -17.42205,-25.80179 -17.42205,-25.80179 31.05603,-2.18705 31.05603,-2.18704 -13.63398,27.98883 z"
           inkscape:transform-center-x="1.2305137"
           inkscape:transform-center-y="-4.6963023"
           transform="matrix(0.34223416,-0.5216564,0.38022648,0.46774112,-1.9212953,498.26065)" />
      </g>
    </g>
  </g>
</svg>
