<?xml version="1.0" encoding="UTF-8" standalone="no"?>
<!-- Created with Inkscape (http://www.inkscape.org/) -->

<svg
   xmlns:dc="http://purl.org/dc/elements/1.1/"
   xmlns:cc="http://creativecommons.org/ns#"
   xmlns:rdf="http://www.w3.org/1999/02/22-rdf-syntax-ns#"
   xmlns:svg="http://www.w3.org/2000/svg"
   xmlns="http://www.w3.org/2000/svg"
   xmlns:sodipodi="http://sodipodi.sourceforge.net/DTD/sodipodi-0.dtd"
   xmlns:inkscape="http://www.inkscape.org/namespaces/inkscape"
   width="744.09448819"
   height="1052.3622047"
   id="svg2"
   version="1.1"
   inkscape:version="0.48.4 r9939"
   sodipodi:docname="mountains.svg">
  <defs
     id="defs4" />
  <sodipodi:namedview
     id="base"
     pagecolor="#ffffff"
     bordercolor="#666666"
     borderopacity="1.0"
     inkscape:pageopacity="0.0"
     inkscape:pageshadow="2"
     inkscape:zoom="1.979899"
     inkscape:cx="223.38521"
     inkscape:cy="440.94785"
     inkscape:document-units="px"
     inkscape:current-layer="layer1"
     showgrid="false"
     inkscape:window-width="1680"
     inkscape:window-height="987"
     inkscape:window-x="-8"
     inkscape:window-y="-8"
     inkscape:window-maximized="1" />
  <metadata
     id="metadata7">
    <rdf:RDF>
      <cc:Work
         rdf:about="">
        <dc:format>image/svg+xml</dc:format>
        <dc:type
           rdf:resource="http://purl.org/dc/dcmitype/StillImage" />
        <dc:title></dc:title>
      </cc:Work>
    </rdf:RDF>
  </metadata>
  <g
     inkscape:label="Layer 1"
     inkscape:groupmode="layer"
     id="layer1">
    <g
       id="g3784"
       transform="matrix(0.75842723,0,0,2.3477165,180.35665,-820.53741)">
      <path
         sodipodi:nodetypes="csscc"
         inkscape:connector-curvature="0"
         id="path3786"
         d="m 142.85714,647.71932 c 92.85715,-81.78571 121.07143,-85 164.28572,-85.35714 43.21428,-0.35714 116.42857,56.42857 135,73.92857 18.57143,17.5 -297.67857,11.74108 -297.67857,11.74108 z"
         style="fill:#ab6000;fill-opacity:1;stroke:#000000;stroke-width:1px;stroke-linecap:butt;stroke-linejoin:miter;stroke-opacity:1" />
      <path
         inkscape:connector-curvature="0"
         id="path3788"
         d="m 307.15164,562.36212 c -33.04915,0.27313 -57.37298,2.26772 -108.5,39.75 l 6.90625,17.40625 28.8125,-22.21875 14.625,24.21875 27.78125,-29.28125 26.78125,28.78125 22.21875,-20.6875 20.71875,20.1875 25.75,-23.75 19.1875,16.6875 12.46875,-7.46875 c -29.94184,-21.13263 -69.35964,-43.85136 -96.75,-43.625 z"
         style="fill:#ffffff;fill-opacity:1;stroke:#000000;stroke-width:1px;stroke-linecap:butt;stroke-linejoin:miter;stroke-opacity:1" />
    </g>
    <g
       id="g3768"
       transform="matrix(0.75842723,0,0,2.4166421,26.308388,-862.78717)">
      <path
         sodipodi:nodetypes="csscc"
         inkscape:connector-curvature="0"
         id="path2989"
         d="m 142.85714,647.71932 c 92.85715,-81.78571 121.07143,-85 164.28572,-85.35714 43.21428,-0.35714 116.42857,56.42857 135,73.92857 18.57143,17.5 -297.67857,11.74108 -297.67857,11.74108 z"
         style="fill:#ab6000;fill-opacity:1;stroke:#000000;stroke-width:1px;stroke-linecap:butt;stroke-linejoin:miter;stroke-opacity:1" />
      <path
         inkscape:connector-curvature="0"
         id="path3763"
         d="m 307.15164,562.36212 c -33.04915,0.27313 -57.37298,2.26772 -108.5,39.75 l 6.90625,17.40625 28.8125,-22.21875 14.625,24.21875 27.78125,-29.28125 26.78125,28.78125 22.21875,-20.6875 20.71875,20.1875 25.75,-23.75 19.1875,16.6875 12.46875,-7.46875 c -29.94184,-21.13263 -69.35964,-43.85136 -96.75,-43.625 z"
         style="fill:#ffffff;fill-opacity:1;stroke:#000000;stroke-width:1px;stroke-linecap:butt;stroke-linejoin:miter;stroke-opacity:1" />
    </g>
    <g
       transform="matrix(0.75842723,0,0,1.4331722,136.41501,-213.1057)"
       id="g3772">
      <path
         style="fill:#ab6000;fill-opacity:1;stroke:#000000;stroke-width:1px;stroke-linecap:butt;stroke-linejoin:miter;stroke-opacity:1"
         d="m 142.85714,647.71932 c 92.85715,-81.78571 121.07143,-85 164.28572,-85.35714 43.21428,-0.35714 116.42857,56.42857 135,73.92857 18.57143,17.5 -297.67857,11.74108 -297.67857,11.74108 z"
         id="path3774"
         inkscape:connector-curvature="0"
         sodipodi:nodetypes="csscc" />
      <path
         style="fill:#ffffff;fill-opacity:1;stroke:#000000;stroke-width:1px;stroke-linecap:butt;stroke-linejoin:miter;stroke-opacity:1"
         d="m 307.15164,562.36212 c -33.04915,0.27313 -57.37298,2.26772 -108.5,39.75 l 6.90625,17.40625 28.8125,-22.21875 14.625,24.21875 27.78125,-29.28125 26.78125,28.78125 22.21875,-20.6875 20.71875,20.1875 25.75,-23.75 19.1875,16.6875 12.46875,-7.46875 c -29.94184,-21.13263 -69.35964,-43.85136 -96.75,-43.625 z"
         id="path3776"
         inkscape:connector-curvature="0" />
    </g>
    <g
       id="g3778"
       transform="matrix(0.75842723,0,0,2.0984606,-81.272863,-627.90679)">
      <path
         sodipodi:nodetypes="csscc"
         inkscape:connector-curvature="0"
         id="path3780"
         d="m 142.85714,647.71932 c 92.85715,-81.78571 121.07143,-85 164.28572,-85.35714 43.21428,-0.35714 116.42857,56.42857 135,73.92857 18.57143,17.5 -297.67857,11.74108 -297.67857,11.74108 z"
         style="fill:#ab6000;fill-opacity:1;stroke:#000000;stroke-width:1px;stroke-linecap:butt;stroke-linejoin:miter;stroke-opacity:1" />
      <path
         inkscape:connector-curvature="0"
         id="path3782"
         d="m 307.15164,562.36212 c -33.04915,0.27313 -57.37298,2.26772 -108.5,39.75 l 6.90625,17.40625 28.8125,-22.21875 14.625,24.21875 27.78125,-29.28125 26.78125,28.78125 22.21875,-20.6875 20.71875,20.1875 25.75,-23.75 19.1875,16.6875 12.46875,-7.46875 c -29.94184,-21.13263 -69.35964,-43.85136 -96.75,-43.625 z"
         style="fill:#ffffff;fill-opacity:1;stroke:#000000;stroke-width:1px;stroke-linecap:butt;stroke-linejoin:miter;stroke-opacity:1" />
    </g>
  </g>
</svg>
