<?xml version="1.0" encoding="UTF-8" standalone="no"?>
<!-- Created with Inkscape (http://www.inkscape.org/) -->

<svg
   xmlns:dc="http://purl.org/dc/elements/1.1/"
   xmlns:cc="http://creativecommons.org/ns#"
   xmlns:rdf="http://www.w3.org/1999/02/22-rdf-syntax-ns#"
   xmlns:svg="http://www.w3.org/2000/svg"
   xmlns="http://www.w3.org/2000/svg"
   xmlns:sodipodi="http://sodipodi.sourceforge.net/DTD/sodipodi-0.dtd"
   xmlns:inkscape="http://www.inkscape.org/namespaces/inkscape"
   width="744.09448819"
   height="1052.3622047"
   id="svg2"
   version="1.1"
   inkscape:version="0.48.4 r9939"
   sodipodi:docname="spider.svg"
   inkscape:export-filename="C:\Users\Quim\Desktop\spider.png"
   inkscape:export-xdpi="90"
   inkscape:export-ydpi="90">
  <defs
     id="defs4">
    <filter
       inkscape:collect="always"
       id="filter3844"
       x="-0.074200238"
       width="1.1484005"
       y="-0.4763542"
       height="1.9527084">
      <feGaussianBlur
         inkscape:collect="always"
         stdDeviation="3.250125"
         id="feGaussianBlur3846" />
    </filter>
    <filter
       inkscape:collect="always"
       id="filter3868"
       x="-0.076411421"
       width="1.1528228"
       y="-0.44517958"
       height="1.8903592">
      <feGaussianBlur
         inkscape:collect="always"
         stdDeviation="2.1548091"
         id="feGaussianBlur3870" />
    </filter>
  </defs>
  <sodipodi:namedview
     id="base"
     pagecolor="#ffffff"
     bordercolor="#666666"
     borderopacity="1.0"
     inkscape:pageopacity="0.0"
     inkscape:pageshadow="2"
     inkscape:zoom="1.4"
     inkscape:cx="155.42844"
     inkscape:cy="787.24705"
     inkscape:document-units="px"
     inkscape:current-layer="g3941"
     showgrid="false"
     inkscape:window-width="1366"
     inkscape:window-height="705"
     inkscape:window-x="-8"
     inkscape:window-y="-8"
     inkscape:window-maximized="1" />
  <metadata
     id="metadata7">
    <rdf:RDF>
      <cc:Work
         rdf:about="">
        <dc:format>image/svg+xml</dc:format>
        <dc:type
           rdf:resource="http://purl.org/dc/dcmitype/StillImage" />
        <dc:title></dc:title>
      </cc:Work>
    </rdf:RDF>
  </metadata>
  <g
     inkscape:label="Layer 1"
     inkscape:groupmode="layer"
     id="layer1">
    <g
       id="g3914"
       transform="translate(-10,-90)">
      <g
         transform="matrix(-1,0,0,1,365.47367,1.5152289)"
         id="g3904"
         style="stroke:#000000;stroke-opacity:1">
        <path
           inkscape:connector-curvature="0"
           id="path3906"
           d="m 212.41558,265.83378 c 0.74042,0.47528 0.27436,2.09322 1.09905,2.39981 8.59309,3.19463 16.0554,-9.46645 25.00555,-11.45183 8.77501,-1.94652 18.36249,-2.79956 26.96424,-0.19197 8.64479,2.62064 13.5532,16.879 22.43052,15.20766 0.87305,-0.16437 1.67547,-1.32237 1.51104,-2.19541 -1.71974,-9.13085 -14.01518,-17.70627 -23.07366,-15.63892 -0.0664,0.0152 -0.0363,0.19209 -0.10261,0.17659 -0.0654,-0.0153 0.0357,-0.15542 -0.0135,-0.20118 -6.84841,-6.36539 -21.4641,-6.46741 -28.0489,0.1703 -0.12157,0.12255 0.16962,0.4809 0.001,0.51785 -0.17649,0.0387 -0.0563,-0.42986 -0.2257,-0.49282 -8.77926,-3.26383 -27.5431,2.54871 -25.54728,11.69992 2e-5,8e-5 1.8e-4,-5e-5 2.5e-4,0 z"
           style="fill:#502700;fill-opacity:1;stroke:#000000;stroke-width:1;stroke-miterlimit:4;stroke-opacity:1;stroke-dasharray:none"
           sodipodi:nodetypes="ssssssssssssss" />
        <path
           style="fill:#502700;fill-opacity:1;stroke:#000000;stroke-width:1;stroke-miterlimit:4;stroke-opacity:1;stroke-dasharray:none"
           d="m 216.62421,268.48135 c -0.62214,0.62214 -0.62214,2.01736 0,2.6395 6.48255,6.48255 18.53907,-1.92161 27.50313,0 8.78864,1.884 17.86066,5.10049 24.59553,11.0529 6.76857,5.98219 5.29431,20.98951 14.06139,23.16632 0.86221,0.21408 2.07394,-0.50465 2.28796,-1.36687 2.23837,-9.01774 -5.36987,-21.93406 -14.46656,-23.82621 -0.0666,-0.0139 -0.113,0.15953 -0.16682,0.11783 -0.0531,-0.0412 0.0972,-0.12643 0.0715,-0.18853 -3.57592,-8.63896 -16.82276,-14.81938 -25.57267,-11.52424 -0.16154,0.0608 -0.0458,0.50792 -0.2145,0.47134 -0.17658,-0.0383 0.12776,-0.41428 0,-0.54204 -6.62299,-6.62299 -21.47597,-6.62299 -28.09896,0 z"
           id="path3908"
           inkscape:connector-curvature="0"
           sodipodi:nodetypes="sssssssssssss" />
        <path
           inkscape:connector-curvature="0"
           id="path3910"
           d="m 223.5147,279.45029 c -0.86467,-0.16262 -1.31251,1.65352 -0.95889,2.45916 3.68464,8.39466 17.97054,4.94464 25.62407,9.99146 7.50376,4.94806 14.78747,11.24052 18.89978,19.23292 4.13289,8.03239 -2.69256,21.47881 4.68473,26.69184 0.72553,0.51268 2.11557,0.28326 2.6282,-0.4423 5.36145,-7.58847 2.96559,-22.38671 -4.82249,-27.45384 -0.0571,-0.0371 -0.16323,0.1076 -0.19823,0.0492 -0.0346,-0.0576 0.1365,-0.0825 0.13511,-0.14968 -0.19321,-9.34781 -10.28976,-19.91835 -19.63893,-20.02703 -0.1726,-0.002 -0.22719,0.45657 -0.37107,0.36121 -0.1506,-0.0998 0.26953,-0.33957 0.19691,-0.50501 -3.76451,-8.5765 -20.89441,-2.47492 -26.17919,-10.20791 z"
           style="fill:#502700;fill-opacity:1;stroke:#000000;stroke-width:1;stroke-miterlimit:4;stroke-opacity:1;stroke-dasharray:none"
           sodipodi:nodetypes="ssssssssssssss" />
        <path
           style="fill:#502700;fill-opacity:1;stroke:#000000;stroke-width:1;stroke-miterlimit:4;stroke-opacity:1;stroke-dasharray:none"
           d="m 203.18455,261.55339 c -0.55451,0.6831 0.76649,1.96706 1.64054,2.06775 9.10747,1.04921 13.3289,-13.02806 21.54556,-17.09418 8.05587,-3.98656 17.16193,-7.10539 26.13757,-6.62832 9.02054,0.47946 17.19321,13.15227 25.41418,9.40851 0.8085,-0.36818 1.31104,-1.68436 0.9428,-2.49283 -3.85134,-8.4556 -17.83999,-13.84627 -26.14174,-9.67363 -0.0608,0.0306 0.0107,0.1952 -0.0574,0.196 -0.0672,7.9e-4 -0.002,-0.15947 -0.0612,-0.19214 -8.17108,-4.54447 -22.3895,-1.15334 -27.19599,6.86641 -0.0887,0.14806 0.27981,0.42637 0.12492,0.50256 -0.16213,0.0797 -0.15741,-0.40395 -0.3369,-0.42463 -9.30478,-1.07193 -12.69615,16.49657 -22.01232,17.46451 z"
           id="path3912"
           inkscape:connector-curvature="0"
           sodipodi:nodetypes="ssssssssssssss" />
      </g>
      <g
         style="stroke:#000000;stroke-opacity:1"
         id="g3888">
        <path
           sodipodi:nodetypes="ssssssssssssss"
           style="fill:#502700;fill-opacity:1;stroke:#000000;stroke-width:1;stroke-miterlimit:4;stroke-opacity:1;stroke-dasharray:none"
           d="m 212.41558,265.83378 c 0.74042,0.47528 0.27436,2.09322 1.09905,2.39981 8.59309,3.19463 16.0554,-9.46645 25.00555,-11.45183 8.77501,-1.94652 18.36249,-2.79956 26.96424,-0.19197 8.64479,2.62064 13.5532,16.879 22.43052,15.20766 0.87305,-0.16437 1.67547,-1.32237 1.51104,-2.19541 -1.71974,-9.13085 -14.01518,-17.70627 -23.07366,-15.63892 -0.0664,0.0152 -0.0363,0.19209 -0.10261,0.17659 -0.0654,-0.0153 0.0357,-0.15542 -0.0135,-0.20118 -6.84841,-6.36539 -21.4641,-6.46741 -28.0489,0.1703 -0.12157,0.12255 0.16962,0.4809 0.001,0.51785 -0.17649,0.0387 -0.0563,-0.42986 -0.2257,-0.49282 -8.77926,-3.26383 -27.5431,2.54871 -25.54728,11.69992 2e-5,8e-5 1.8e-4,-5e-5 2.5e-4,0 z"
           id="rect3875"
           inkscape:connector-curvature="0" />
        <path
           sodipodi:nodetypes="sssssssssssss"
           inkscape:connector-curvature="0"
           id="path3882"
           d="m 216.62421,268.48135 c -0.62214,0.62214 -0.62214,2.01736 0,2.6395 6.48255,6.48255 18.53907,-1.92161 27.50313,0 8.78864,1.884 17.86066,5.10049 24.59553,11.0529 6.76857,5.98219 5.29431,20.98951 14.06139,23.16632 0.86221,0.21408 2.07394,-0.50465 2.28796,-1.36687 2.23837,-9.01774 -5.36987,-21.93406 -14.46656,-23.82621 -0.0666,-0.0139 -0.113,0.15953 -0.16682,0.11783 -0.0531,-0.0412 0.0972,-0.12643 0.0715,-0.18853 -3.57592,-8.63896 -16.82276,-14.81938 -25.57267,-11.52424 -0.16154,0.0608 -0.0458,0.50792 -0.2145,0.47134 -0.17658,-0.0383 0.12776,-0.41428 0,-0.54204 -6.62299,-6.62299 -21.47597,-6.62299 -28.09896,0 z"
           style="fill:#502700;fill-opacity:1;stroke:#000000;stroke-width:1;stroke-miterlimit:4;stroke-opacity:1;stroke-dasharray:none" />
        <path
           sodipodi:nodetypes="ssssssssssssss"
           style="fill:#502700;fill-opacity:1;stroke:#000000;stroke-width:1;stroke-miterlimit:4;stroke-opacity:1;stroke-dasharray:none"
           d="m 223.5147,279.45029 c -0.86467,-0.16262 -1.31251,1.65352 -0.95889,2.45916 3.68464,8.39466 17.97054,4.94464 25.62407,9.99146 7.50376,4.94806 14.78747,11.24052 18.89978,19.23292 4.13289,8.03239 -2.69256,21.47881 4.68473,26.69184 0.72553,0.51268 2.11557,0.28326 2.6282,-0.4423 5.36145,-7.58847 2.96559,-22.38671 -4.82249,-27.45384 -0.0571,-0.0371 -0.16323,0.1076 -0.19823,0.0492 -0.0346,-0.0576 0.1365,-0.0825 0.13511,-0.14968 -0.19321,-9.34781 -10.28976,-19.91835 -19.63893,-20.02703 -0.1726,-0.002 -0.22719,0.45657 -0.37107,0.36121 -0.1506,-0.0998 0.26953,-0.33957 0.19691,-0.50501 -3.76451,-8.5765 -20.89441,-2.47492 -26.17919,-10.20791 z"
           id="path3884"
           inkscape:connector-curvature="0" />
        <path
           sodipodi:nodetypes="ssssssssssssss"
           inkscape:connector-curvature="0"
           id="path3886"
           d="m 203.18455,261.55339 c -0.55451,0.6831 0.76649,1.96706 1.64054,2.06775 9.10747,1.04921 13.3289,-13.02806 21.54556,-17.09418 8.05587,-3.98656 17.16193,-7.10539 26.13757,-6.62832 9.02054,0.47946 17.19321,13.15227 25.41418,9.40851 0.8085,-0.36818 1.31104,-1.68436 0.9428,-2.49283 -3.85134,-8.4556 -17.83999,-13.84627 -26.14174,-9.67363 -0.0608,0.0306 0.0107,0.1952 -0.0574,0.196 -0.0672,7.9e-4 -0.002,-0.15947 -0.0612,-0.19214 -8.17108,-4.54447 -22.3895,-1.15334 -27.19599,6.86641 -0.0887,0.14806 0.27981,0.42637 0.12492,0.50256 -0.16213,0.0797 -0.15741,-0.40395 -0.3369,-0.42463 -9.30478,-1.07193 -12.69615,16.49657 -22.01232,17.46451 z"
           style="fill:#502700;fill-opacity:1;stroke:#000000;stroke-width:1;stroke-miterlimit:4;stroke-opacity:1;stroke-dasharray:none" />
      </g>
      <path
         id="path2985"
         d="m 182.15625,237.71875 c -15.31771,0 -27.89928,8.88944 -29.1875,20.21875 -17.35168,4.85352 -29.03125,13.89036 -29.03125,24.25 0,15.4837 26.06789,28.03125 58.21875,28.03125 32.15086,0 58.1875,-12.54755 58.1875,-28.03125 0,-10.36539 -11.66364,-19.39844 -29.03125,-24.25 -1.28822,-11.32931 -13.83854,-20.21875 -29.15625,-20.21875 z"
         style="fill:#502700;fill-opacity:1;stroke:#000000;stroke-width:1;stroke-miterlimit:4;stroke-opacity:1;stroke-dasharray:none"
         inkscape:connector-curvature="0" />
      <path
         id="path3758"
         d="m 174.71875,241.125 c -3.91962,0.11682 -7.93632,4.1365 -9.46875,9.8125 -1.75135,6.48686 0.38908,12.68918 4.78125,13.875 4.39217,1.18582 9.37365,-3.10689 11.125,-9.59375 0.19282,-0.71418 0.33685,-1.42365 0.4375,-2.125 0.10067,0.70263 0.27557,1.40947 0.46875,2.125 1.75135,6.48686 6.70158,10.77957 11.09375,9.59375 4.39217,-1.18582 6.5326,-7.38814 4.78125,-13.875 -1.75135,-6.48686 -6.70158,-10.77957 -11.09375,-9.59375 -2.77608,0.7495 -4.65576,3.49456 -5.21875,7.0625 -0.56234,-3.56959 -2.47304,-6.31276 -5.25,-7.0625 -0.54902,-0.14823 -1.0963,-0.23544 -1.65625,-0.21875 z"
         style="fill:#ffffff;fill-opacity:1;stroke:#000000;stroke-width:0.95361501;stroke-miterlimit:4;stroke-opacity:1;stroke-dasharray:none"
         inkscape:connector-curvature="0" />
      <path
         transform="matrix(1.2957498,0,0,0.98219729,-46.432567,4.86031)"
         d="m 171.72593,258.82422 c 0,1.98749 -0.76319,3.59867 -1.70463,3.59867 -0.94144,0 -1.70463,-1.61118 -1.70463,-3.59867 0,-1.98749 0.76319,-3.59867 1.70463,-3.59867 0.94144,0 1.70463,1.61118 1.70463,3.59867 z"
         sodipodi:ry="3.5986683"
         sodipodi:rx="1.7046324"
         sodipodi:cy="258.82422"
         sodipodi:cx="170.0213"
         id="path3787"
         style="fill:#000000;fill-opacity:1;stroke:#000000;stroke-width:1;stroke-miterlimit:4;stroke-opacity:1;stroke-dasharray:none"
         sodipodi:type="arc" />
      <path
         sodipodi:type="arc"
         style="fill:#000000;fill-opacity:1;stroke:#000000;stroke-width:1;stroke-miterlimit:4;stroke-opacity:1;stroke-dasharray:none"
         id="path3789"
         sodipodi:cx="170.0213"
         sodipodi:cy="258.82422"
         sodipodi:rx="1.7046324"
         sodipodi:ry="3.5986683"
         d="m 171.72593,258.82422 c 0,1.98749 -0.76319,3.59867 -1.70463,3.59867 -0.94144,0 -1.70463,-1.61118 -1.70463,-3.59867 0,-1.98749 0.76319,-3.59867 1.70463,-3.59867 0.94144,0 1.70463,1.61118 1.70463,3.59867 z"
         transform="matrix(1.2957498,0,0,0.98219729,-31.406548,4.3552337)" />
      <path
         transform="matrix(0.14495755,0,0,0.54366944,159.28544,110.79824)"
         d="m 197.35856,271.70367 c 0,1.49934 -1.80905,2.71479 -4.04061,2.71479 -2.23157,0 -4.04061,-1.21545 -4.04061,-2.71479 0,-1.49933 1.80904,-2.71478 4.04061,-2.71478 2.23156,0 4.04061,1.21545 4.04061,2.71478 z"
         sodipodi:ry="2.7147849"
         sodipodi:rx="4.0406103"
         sodipodi:cy="271.70367"
         sodipodi:cx="193.31795"
         id="path3791"
         style="fill:#ffffff;fill-opacity:1;stroke:none"
         sodipodi:type="arc" />
      <path
         sodipodi:type="arc"
         style="fill:#ffffff;fill-opacity:1;stroke:none"
         id="path3793"
         sodipodi:cx="193.31795"
         sodipodi:cy="271.70367"
         sodipodi:rx="4.0406103"
         sodipodi:ry="2.7147849"
         d="m 197.35856,271.70367 c 0,1.49934 -1.80905,2.71479 -4.04061,2.71479 -2.23157,0 -4.04061,-1.21545 -4.04061,-2.71479 0,-1.49933 1.80904,-2.71478 4.04061,-2.71478 2.23156,0 4.04061,1.21545 4.04061,2.71478 z"
         transform="matrix(0.14495755,0,0,0.54366944,144.30776,110.59735)" />
      <path
         id="path3763"
         d="m 174.71875,241.125 c -3.85225,0.11481 -7.78572,4.00943 -9.375,9.53125 3.52406,4.90489 8.54712,8.11545 14.21875,8.46875 0.65226,-1.17463 1.21064,-2.48725 1.59375,-3.90625 0.19282,-0.71418 0.33685,-1.42365 0.4375,-2.125 0.10067,0.70263 0.27557,1.40947 0.46875,2.125 0.35947,1.33146 0.87223,2.56932 1.46875,3.6875 5.60362,-0.97714 10.48271,-4.74134 13.65625,-10.125 -2.16026,-5.24231 -6.46233,-8.48542 -10.34375,-7.4375 -2.77608,0.7495 -4.65576,3.49456 -5.21875,7.0625 -0.56234,-3.56959 -2.47304,-6.31276 -5.25,-7.0625 -0.54902,-0.14823 -1.0963,-0.23544 -1.65625,-0.21875 z"
         style="fill:#502700;fill-opacity:1;stroke:#000000;stroke-width:0.95361501;stroke-miterlimit:4;stroke-opacity:1;stroke-dasharray:none"
         inkscape:connector-curvature="0" />
      <path
         transform="translate(4.0406102,-4.2931483)"
         d="m 193.69675,285.90894 c 0,4.18418 -7.40577,7.57614 -16.54125,7.57614 -9.13548,0 -16.54125,-3.39196 -16.54125,-7.57614 0,-4.18419 7.40577,-7.57615 16.54125,-7.57615 9.13548,0 16.54125,3.39196 16.54125,7.57615 z"
         sodipodi:ry="7.5761442"
         sodipodi:rx="16.541248"
         sodipodi:cy="285.90894"
         sodipodi:cx="177.1555"
         id="path3779"
         style="fill:#000000;fill-opacity:1;stroke:#000000;stroke-opacity:1"
         sodipodi:type="arc" />
      <path
         transform="matrix(0.35404234,0.03402874,-0.04643679,0.48313829,124.31724,152.2183)"
         d="m 142.17897,263.55933 c 0,5.64865 -1.63945,10.22779 -3.6618,10.22779 -2.02236,0 -3.66181,-4.57914 -3.66181,-10.22779 0,-5.64866 1.63945,-10.2278 3.66181,-10.2278 2.02235,0 3.6618,4.57914 3.6618,10.2278 z"
         sodipodi:ry="10.227795"
         sodipodi:rx="3.661803"
         sodipodi:cy="263.55933"
         sodipodi:cx="138.51717"
         id="path3781"
         style="fill:#ffffff;fill-opacity:1;stroke:#000000;stroke-width:1;stroke-miterlimit:4;stroke-opacity:1;stroke-dasharray:none"
         sodipodi:type="arc" />
      <path
         sodipodi:type="arc"
         style="fill:#ffffff;fill-opacity:1;stroke:#000000;stroke-width:1;stroke-miterlimit:4;stroke-opacity:1;stroke-dasharray:none"
         id="path3783"
         sodipodi:cx="138.51717"
         sodipodi:cy="263.55933"
         sodipodi:rx="3.661803"
         sodipodi:ry="10.227795"
         d="m 142.17897,263.55933 c 0,5.64865 -1.63945,10.22779 -3.6618,10.22779 -2.02236,0 -3.66181,-4.57914 -3.66181,-10.22779 0,-5.64866 1.63945,-10.2278 3.66181,-10.2278 2.02235,0 3.6618,4.57914 3.6618,10.2278 z"
         transform="matrix(-0.35404234,0.03402874,0.04643679,0.48313829,238.58007,152.72338)" />
      <g
         transform="matrix(1,0,0,0.61550169,-0.50507632,104.89721)"
         id="g3775">
        <path
           sodipodi:type="arc"
           style="fill:#502700;fill-opacity:1;stroke:#000000;stroke-width:1;stroke-miterlimit:4;stroke-opacity:1;stroke-dasharray:none"
           id="path3769"
           sodipodi:cx="182.08"
           sodipodi:cy="283.88864"
           sodipodi:rx="31.31473"
           sodipodi:ry="10.101525"
           d="m 213.39473,283.88864 c 0,5.57892 -14.02008,10.10153 -31.31473,10.10153 -17.29465,0 -31.31473,-4.52261 -31.31473,-10.10153 0,-5.57892 14.02008,-10.10152 31.31473,-10.10152 17.29465,0 31.31473,4.5226 31.31473,10.10152 z" />
        <path
           sodipodi:type="arc"
           style="fill:#502700;fill-opacity:1;stroke:none"
           id="path3771"
           sodipodi:cx="170.33698"
           sodipodi:cy="275.30234"
           sodipodi:rx="28.158003"
           sodipodi:ry="7.323606"
           d="m 198.49498,275.30234 c 0,4.04471 -12.60677,7.3236 -28.158,7.3236 -15.55124,0 -28.15801,-3.27889 -28.15801,-7.3236 0,-4.04472 12.60677,-7.32361 28.15801,-7.32361 15.55123,0 28.158,3.27889 28.158,7.32361 z"
           transform="matrix(1.4399258,0,0,1.5190253,-62.308733,-138.84827)" />
      </g>
      <path
         inkscape:connector-curvature="0"
         id="path3795"
         d="m 129.21875,291.52232 c 9.19177,9.65912 29.42969,16.375 52.9375,16.375 22.91985,0 42.69991,-6.38493 52.1875,-15.65625 -15.47317,2.47919 -32.4974,3.875 -50.40625,3.875 -19.57953,0 -38.13035,-1.66018 -54.71875,-4.59375 z"
         style="fill:#000000;fill-opacity:0.39153436;stroke:none;filter:url(#filter3844)" />
      <path
         sodipodi:nodetypes="sssss"
         inkscape:connector-curvature="0"
         id="path3858"
         d="m 215.28876,275.68114 c 0,3.20788 -14.64566,0.75762 -33.33504,0.75762 -18.68937,0 -34.34519,2.45026 -34.34519,-0.75762 0,-3.20788 15.65582,-10.85914 34.34519,-10.85914 18.68938,0 33.33504,7.65126 33.33504,10.85914 z"
         style="fill:#ffaa6f;fill-opacity:0.16402115;stroke:none;filter:url(#filter3868)" />
    </g>
    <g
       transform="translate(-11.428571,55.714286)"
       id="g3941">
      <g
         style="stroke:#000000;stroke-opacity:1"
         id="g3943"
         transform="matrix(-0.98034023,0.19731457,0.19731457,0.98034023,301.22401,-32.867506)">
        <path
           sodipodi:nodetypes="ssssssssssssss"
           style="fill:#502700;fill-opacity:1;stroke:#000000;stroke-width:1;stroke-miterlimit:4;stroke-opacity:1;stroke-dasharray:none"
           d="m 212.41558,265.83378 c 0.74042,0.47528 0.27436,2.09322 1.09905,2.39981 8.59309,3.19463 16.0554,-9.46645 25.00555,-11.45183 8.77501,-1.94652 18.36249,-2.79956 26.96424,-0.19197 8.64479,2.62064 13.5532,16.879 22.43052,15.20766 0.87305,-0.16437 1.67547,-1.32237 1.51104,-2.19541 -1.71974,-9.13085 -14.01518,-17.70627 -23.07366,-15.63892 -0.0664,0.0152 -0.0363,0.19209 -0.10261,0.17659 -0.0654,-0.0153 0.0357,-0.15542 -0.0135,-0.20118 -6.84841,-6.36539 -21.4641,-6.46741 -28.0489,0.1703 -0.12157,0.12255 0.16962,0.4809 0.001,0.51785 -0.17649,0.0387 -0.0563,-0.42986 -0.2257,-0.49282 -8.77926,-3.26383 -27.5431,2.54871 -25.54728,11.69992 2e-5,8e-5 1.8e-4,-5e-5 2.5e-4,0 z"
           id="path3945"
           inkscape:connector-curvature="0" />
        <path
           sodipodi:nodetypes="sssssssssssss"
           inkscape:connector-curvature="0"
           id="path3947"
           d="m 216.62421,268.48135 c -0.62214,0.62214 -0.62214,2.01736 0,2.6395 6.48255,6.48255 18.53907,-1.92161 27.50313,0 8.78864,1.884 17.86066,5.10049 24.59553,11.0529 6.76857,5.98219 5.29431,20.98951 14.06139,23.16632 0.86221,0.21408 2.07394,-0.50465 2.28796,-1.36687 2.23837,-9.01774 -5.36987,-21.93406 -14.46656,-23.82621 -0.0666,-0.0139 -0.113,0.15953 -0.16682,0.11783 -0.0531,-0.0412 0.0972,-0.12643 0.0715,-0.18853 -3.57592,-8.63896 -16.82276,-14.81938 -25.57267,-11.52424 -0.16154,0.0608 -0.0458,0.50792 -0.2145,0.47134 -0.17658,-0.0383 0.12776,-0.41428 0,-0.54204 -6.62299,-6.62299 -21.47597,-6.62299 -28.09896,0 z"
           style="fill:#502700;fill-opacity:1;stroke:#000000;stroke-width:1;stroke-miterlimit:4;stroke-opacity:1;stroke-dasharray:none" />
        <path
           sodipodi:nodetypes="ssssssssssssss"
           style="fill:#502700;fill-opacity:1;stroke:#000000;stroke-width:1;stroke-miterlimit:4;stroke-opacity:1;stroke-dasharray:none"
           d="m 223.5147,279.45029 c -0.86467,-0.16262 -1.31251,1.65352 -0.95889,2.45916 3.68464,8.39466 17.97054,4.94464 25.62407,9.99146 7.50376,4.94806 14.78747,11.24052 18.89978,19.23292 4.13289,8.03239 -2.69256,21.47881 4.68473,26.69184 0.72553,0.51268 2.11557,0.28326 2.6282,-0.4423 5.36145,-7.58847 2.96559,-22.38671 -4.82249,-27.45384 -0.0571,-0.0371 -0.16323,0.1076 -0.19823,0.0492 -0.0346,-0.0576 0.1365,-0.0825 0.13511,-0.14968 -0.19321,-9.34781 -10.28976,-19.91835 -19.63893,-20.02703 -0.1726,-0.002 -0.22719,0.45657 -0.37107,0.36121 -0.1506,-0.0998 0.26953,-0.33957 0.19691,-0.50501 -3.76451,-8.5765 -20.89441,-2.47492 -26.17919,-10.20791 z"
           id="path3949"
           inkscape:connector-curvature="0" />
        <path
           sodipodi:nodetypes="ssssssssssssss"
           inkscape:connector-curvature="0"
           id="path3951"
           d="m 203.18455,261.55339 c -0.55451,0.6831 0.76649,1.96706 1.64054,2.06775 9.10747,1.04921 13.3289,-13.02806 21.54556,-17.09418 8.05587,-3.98656 17.16193,-7.10539 26.13757,-6.62832 9.02054,0.47946 17.19321,13.15227 25.41418,9.40851 0.8085,-0.36818 1.31104,-1.68436 0.9428,-2.49283 -3.85134,-8.4556 -17.83999,-13.84627 -26.14174,-9.67363 -0.0608,0.0306 0.0107,0.1952 -0.0574,0.196 -0.0672,7.9e-4 -0.002,-0.15947 -0.0612,-0.19214 -8.17108,-4.54447 -22.3895,-1.15334 -27.19599,6.86641 -0.0887,0.14806 0.27981,0.42637 0.12492,0.50256 -0.16213,0.0797 -0.15741,-0.40395 -0.3369,-0.42463 -9.30478,-1.07193 -12.69615,16.49657 -22.01232,17.46451 z"
           style="fill:#502700;fill-opacity:1;stroke:#000000;stroke-width:1;stroke-miterlimit:4;stroke-opacity:1;stroke-dasharray:none" />
      </g>
      <g
         id="g3953"
         style="stroke:#000000;stroke-opacity:1"
         transform="matrix(0.97986376,0.19966723,-0.19966723,0.97986376,62.184137,-34.825521)">
        <path
           inkscape:connector-curvature="0"
           id="path3955"
           d="m 212.41558,265.83378 c 0.74042,0.47528 0.27436,2.09322 1.09905,2.39981 8.59309,3.19463 16.0554,-9.46645 25.00555,-11.45183 8.77501,-1.94652 18.36249,-2.79956 26.96424,-0.19197 8.64479,2.62064 13.5532,16.879 22.43052,15.20766 0.87305,-0.16437 1.67547,-1.32237 1.51104,-2.19541 -1.71974,-9.13085 -14.01518,-17.70627 -23.07366,-15.63892 -0.0664,0.0152 -0.0363,0.19209 -0.10261,0.17659 -0.0654,-0.0153 0.0357,-0.15542 -0.0135,-0.20118 -6.84841,-6.36539 -21.4641,-6.46741 -28.0489,0.1703 -0.12157,0.12255 0.16962,0.4809 0.001,0.51785 -0.17649,0.0387 -0.0563,-0.42986 -0.2257,-0.49282 -8.77926,-3.26383 -27.5431,2.54871 -25.54728,11.69992 2e-5,8e-5 1.8e-4,-5e-5 2.5e-4,0 z"
           style="fill:#502700;fill-opacity:1;stroke:#000000;stroke-width:1;stroke-miterlimit:4;stroke-opacity:1;stroke-dasharray:none"
           sodipodi:nodetypes="ssssssssssssss" />
        <path
           style="fill:#502700;fill-opacity:1;stroke:#000000;stroke-width:1;stroke-miterlimit:4;stroke-opacity:1;stroke-dasharray:none"
           d="m 216.62421,268.48135 c -0.62214,0.62214 -0.62214,2.01736 0,2.6395 6.48255,6.48255 18.53907,-1.92161 27.50313,0 8.78864,1.884 17.86066,5.10049 24.59553,11.0529 6.76857,5.98219 5.29431,20.98951 14.06139,23.16632 0.86221,0.21408 2.07394,-0.50465 2.28796,-1.36687 2.23837,-9.01774 -5.36987,-21.93406 -14.46656,-23.82621 -0.0666,-0.0139 -0.113,0.15953 -0.16682,0.11783 -0.0531,-0.0412 0.0972,-0.12643 0.0715,-0.18853 -3.57592,-8.63896 -16.82276,-14.81938 -25.57267,-11.52424 -0.16154,0.0608 -0.0458,0.50792 -0.2145,0.47134 -0.17658,-0.0383 0.12776,-0.41428 0,-0.54204 -6.62299,-6.62299 -21.47597,-6.62299 -28.09896,0 z"
           id="path3957"
           inkscape:connector-curvature="0"
           sodipodi:nodetypes="sssssssssssss" />
        <path
           inkscape:connector-curvature="0"
           id="path3959"
           d="m 223.5147,279.45029 c -0.86467,-0.16262 -1.31251,1.65352 -0.95889,2.45916 3.68464,8.39466 17.97054,4.94464 25.62407,9.99146 7.50376,4.94806 14.78747,11.24052 18.89978,19.23292 4.13289,8.03239 -2.69256,21.47881 4.68473,26.69184 0.72553,0.51268 2.11557,0.28326 2.6282,-0.4423 5.36145,-7.58847 2.96559,-22.38671 -4.82249,-27.45384 -0.0571,-0.0371 -0.16323,0.1076 -0.19823,0.0492 -0.0346,-0.0576 0.1365,-0.0825 0.13511,-0.14968 -0.19321,-9.34781 -10.28976,-19.91835 -19.63893,-20.02703 -0.1726,-0.002 -0.22719,0.45657 -0.37107,0.36121 -0.1506,-0.0998 0.26953,-0.33957 0.19691,-0.50501 -3.76451,-8.5765 -20.89441,-2.47492 -26.17919,-10.20791 z"
           style="fill:#502700;fill-opacity:1;stroke:#000000;stroke-width:1;stroke-miterlimit:4;stroke-opacity:1;stroke-dasharray:none"
           sodipodi:nodetypes="ssssssssssssss" />
        <path
           style="fill:#502700;fill-opacity:1;stroke:#000000;stroke-width:1;stroke-miterlimit:4;stroke-opacity:1;stroke-dasharray:none"
           d="m 203.18455,261.55339 c -0.55451,0.6831 0.76649,1.96706 1.64054,2.06775 9.10747,1.04921 13.3289,-13.02806 21.54556,-17.09418 8.05587,-3.98656 17.16193,-7.10539 26.13757,-6.62832 9.02054,0.47946 17.19321,13.15227 25.41418,9.40851 0.8085,-0.36818 1.31104,-1.68436 0.9428,-2.49283 -3.85134,-8.4556 -17.83999,-13.84627 -26.14174,-9.67363 -0.0608,0.0306 0.0107,0.1952 -0.0574,0.196 -0.0672,7.9e-4 -0.002,-0.15947 -0.0612,-0.19214 -8.17108,-4.54447 -22.3895,-1.15334 -27.19599,6.86641 -0.0887,0.14806 0.27981,0.42637 0.12492,0.50256 -0.16213,0.0797 -0.15741,-0.40395 -0.3369,-0.42463 -9.30478,-1.07193 -12.69615,16.49657 -22.01232,17.46451 z"
           id="path3961"
           inkscape:connector-curvature="0"
           sodipodi:nodetypes="ssssssssssssss" />
      </g>
      <path
         inkscape:connector-curvature="0"
         style="fill:#502700;fill-opacity:1;stroke:#000000;stroke-width:1;stroke-miterlimit:4;stroke-opacity:1;stroke-dasharray:none"
         d="m 182.15625,237.71875 c -15.31771,0 -27.89928,8.88944 -29.1875,20.21875 -17.35168,4.85352 -29.03125,13.89036 -29.03125,24.25 0,15.4837 26.06789,28.03125 58.21875,28.03125 32.15086,0 58.1875,-12.54755 58.1875,-28.03125 0,-10.36539 -11.66364,-19.39844 -29.03125,-24.25 -1.28822,-11.32931 -13.83854,-20.21875 -29.15625,-20.21875 z"
         id="path3963" />
      <path
         inkscape:connector-curvature="0"
         style="fill:#ffffff;fill-opacity:1;stroke:#000000;stroke-width:0.95361501;stroke-miterlimit:4;stroke-opacity:1;stroke-dasharray:none"
         d="m 174.71875,241.125 c -3.91962,0.11682 -7.93632,4.1365 -9.46875,9.8125 -1.75135,6.48686 0.38908,12.68918 4.78125,13.875 4.39217,1.18582 9.37365,-3.10689 11.125,-9.59375 0.19282,-0.71418 0.33685,-1.42365 0.4375,-2.125 0.10067,0.70263 0.27557,1.40947 0.46875,2.125 1.75135,6.48686 6.70158,10.77957 11.09375,9.59375 4.39217,-1.18582 6.5326,-7.38814 4.78125,-13.875 -1.75135,-6.48686 -6.70158,-10.77957 -11.09375,-9.59375 -2.77608,0.7495 -4.65576,3.49456 -5.21875,7.0625 -0.56234,-3.56959 -2.47304,-6.31276 -5.25,-7.0625 -0.54902,-0.14823 -1.0963,-0.23544 -1.65625,-0.21875 z"
         id="path3965" />
      <path
         sodipodi:type="arc"
         style="fill:#000000;fill-opacity:1;stroke:#000000;stroke-width:1;stroke-miterlimit:4;stroke-opacity:1;stroke-dasharray:none"
         id="path3967"
         sodipodi:cx="170.0213"
         sodipodi:cy="258.82422"
         sodipodi:rx="1.7046324"
         sodipodi:ry="3.5986683"
         d="m 171.72593,258.82422 c 0,1.98749 -0.76319,3.59867 -1.70463,3.59867 -0.94144,0 -1.70463,-1.61118 -1.70463,-3.59867 0,-1.98749 0.76319,-3.59867 1.70463,-3.59867 0.94144,0 1.70463,1.61118 1.70463,3.59867 z"
         transform="matrix(1.2957498,0,0,0.98219729,-46.432567,4.86031)" />
      <path
         transform="matrix(1.2957498,0,0,0.98219729,-31.406548,4.3552337)"
         d="m 171.72593,258.82422 c 0,1.98749 -0.76319,3.59867 -1.70463,3.59867 -0.94144,0 -1.70463,-1.61118 -1.70463,-3.59867 0,-1.98749 0.76319,-3.59867 1.70463,-3.59867 0.94144,0 1.70463,1.61118 1.70463,3.59867 z"
         sodipodi:ry="3.5986683"
         sodipodi:rx="1.7046324"
         sodipodi:cy="258.82422"
         sodipodi:cx="170.0213"
         id="path3969"
         style="fill:#000000;fill-opacity:1;stroke:#000000;stroke-width:1;stroke-miterlimit:4;stroke-opacity:1;stroke-dasharray:none"
         sodipodi:type="arc" />
      <path
         sodipodi:type="arc"
         style="fill:#ffffff;fill-opacity:1;stroke:none"
         id="path3971"
         sodipodi:cx="193.31795"
         sodipodi:cy="271.70367"
         sodipodi:rx="4.0406103"
         sodipodi:ry="2.7147849"
         d="m 197.35856,271.70367 c 0,1.49934 -1.80905,2.71479 -4.04061,2.71479 -2.23157,0 -4.04061,-1.21545 -4.04061,-2.71479 0,-1.49933 1.80904,-2.71478 4.04061,-2.71478 2.23156,0 4.04061,1.21545 4.04061,2.71478 z"
         transform="matrix(0.14495755,0,0,0.54366944,159.28544,110.79824)" />
      <path
         transform="matrix(0.14495755,0,0,0.54366944,144.30776,110.59735)"
         d="m 197.35856,271.70367 c 0,1.49934 -1.80905,2.71479 -4.04061,2.71479 -2.23157,0 -4.04061,-1.21545 -4.04061,-2.71479 0,-1.49933 1.80904,-2.71478 4.04061,-2.71478 2.23156,0 4.04061,1.21545 4.04061,2.71478 z"
         sodipodi:ry="2.7147849"
         sodipodi:rx="4.0406103"
         sodipodi:cy="271.70367"
         sodipodi:cx="193.31795"
         id="path3973"
         style="fill:#ffffff;fill-opacity:1;stroke:none"
         sodipodi:type="arc" />
      <path
         inkscape:connector-curvature="0"
         style="fill:#502700;fill-opacity:1;stroke:#000000;stroke-width:0.95361501;stroke-miterlimit:4;stroke-opacity:1;stroke-dasharray:none"
         d="m 174.71875,241.125 c -3.85225,0.11481 -7.78572,4.00943 -9.375,9.53125 3.52406,4.90489 8.54712,8.11545 14.21875,8.46875 0.65226,-1.17463 1.21064,-2.48725 1.59375,-3.90625 0.19282,-0.71418 0.33685,-1.42365 0.4375,-2.125 0.10067,0.70263 0.27557,1.40947 0.46875,2.125 0.35947,1.33146 0.87223,2.56932 1.46875,3.6875 5.60362,-0.97714 10.48271,-4.74134 13.65625,-10.125 -2.16026,-5.24231 -6.46233,-8.48542 -10.34375,-7.4375 -2.77608,0.7495 -4.65576,3.49456 -5.21875,7.0625 -0.56234,-3.56959 -2.47304,-6.31276 -5.25,-7.0625 -0.54902,-0.14823 -1.0963,-0.23544 -1.65625,-0.21875 z"
         id="path3975" />
      <path
         sodipodi:type="arc"
         style="fill:#000000;fill-opacity:1;stroke:#000000;stroke-opacity:1"
         id="path3977"
         sodipodi:cx="177.1555"
         sodipodi:cy="285.90894"
         sodipodi:rx="16.541248"
         sodipodi:ry="7.5761442"
         d="m 193.69675,285.90894 c 0,4.18418 -7.40577,7.57614 -16.54125,7.57614 -9.13548,0 -16.54125,-3.39196 -16.54125,-7.57614 0,-4.18419 7.40577,-7.57615 16.54125,-7.57615 9.13548,0 16.54125,3.39196 16.54125,7.57615 z"
         transform="translate(4.0406102,-4.2931483)" />
      <path
         sodipodi:type="arc"
         style="fill:#ffffff;fill-opacity:1;stroke:#000000;stroke-width:1;stroke-miterlimit:4;stroke-opacity:1;stroke-dasharray:none"
         id="path3979"
         sodipodi:cx="138.51717"
         sodipodi:cy="263.55933"
         sodipodi:rx="3.661803"
         sodipodi:ry="10.227795"
         d="m 142.17897,263.55933 c 0,5.64865 -1.63945,10.22779 -3.6618,10.22779 -2.02236,0 -3.66181,-4.57914 -3.66181,-10.22779 0,-5.64866 1.63945,-10.2278 3.66181,-10.2278 2.02235,0 3.6618,4.57914 3.6618,10.2278 z"
         transform="matrix(0.35404234,0.03402874,-0.04643679,0.48313829,124.31724,152.2183)" />
      <path
         transform="matrix(-0.35404234,0.03402874,0.04643679,0.48313829,238.58007,152.72338)"
         d="m 142.17897,263.55933 c 0,5.64865 -1.63945,10.22779 -3.6618,10.22779 -2.02236,0 -3.66181,-4.57914 -3.66181,-10.22779 0,-5.64866 1.63945,-10.2278 3.66181,-10.2278 2.02235,0 3.6618,4.57914 3.6618,10.2278 z"
         sodipodi:ry="10.227795"
         sodipodi:rx="3.661803"
         sodipodi:cy="263.55933"
         sodipodi:cx="138.51717"
         id="path3981"
         style="fill:#ffffff;fill-opacity:1;stroke:#000000;stroke-width:1;stroke-miterlimit:4;stroke-opacity:1;stroke-dasharray:none"
         sodipodi:type="arc" />
      <g
         id="g3983"
         transform="matrix(1,0,0,0.61550169,-0.50507632,104.89721)">
        <path
           d="m 213.39473,283.88864 c 0,5.57892 -14.02008,10.10153 -31.31473,10.10153 -17.29465,0 -31.31473,-4.52261 -31.31473,-10.10153 0,-5.57892 14.02008,-10.10152 31.31473,-10.10152 17.29465,0 31.31473,4.5226 31.31473,10.10152 z"
           sodipodi:ry="10.101525"
           sodipodi:rx="31.31473"
           sodipodi:cy="283.88864"
           sodipodi:cx="182.08"
           id="path3985"
           style="fill:#502700;fill-opacity:1;stroke:#000000;stroke-width:1;stroke-miterlimit:4;stroke-opacity:1;stroke-dasharray:none"
           sodipodi:type="arc" />
        <path
           transform="matrix(1.4399258,0,0,1.5190253,-62.308733,-138.84827)"
           d="m 198.49498,275.30234 c 0,4.04471 -12.60677,7.3236 -28.158,7.3236 -15.55124,0 -28.15801,-3.27889 -28.15801,-7.3236 0,-4.04472 12.60677,-7.32361 28.15801,-7.32361 15.55123,0 28.158,3.27889 28.158,7.32361 z"
           sodipodi:ry="7.323606"
           sodipodi:rx="28.158003"
           sodipodi:cy="275.30234"
           sodipodi:cx="170.33698"
           id="path3987"
           style="fill:#502700;fill-opacity:1;stroke:none"
           sodipodi:type="arc" />
      </g>
      <path
         style="fill:#000000;fill-opacity:0.39153436;stroke:none;filter:url(#filter3844)"
         d="m 129.21875,291.52232 c 9.19177,9.65912 29.42969,16.375 52.9375,16.375 22.91985,0 42.69991,-6.38493 52.1875,-15.65625 -15.47317,2.47919 -32.4974,3.875 -50.40625,3.875 -19.57953,0 -38.13035,-1.66018 -54.71875,-4.59375 z"
         id="path3989"
         inkscape:connector-curvature="0" />
      <path
         style="fill:#ffaa6f;fill-opacity:0.16402115;stroke:none;filter:url(#filter3868)"
         d="m 215.28876,275.68114 c 0,3.20788 -14.64566,0.75762 -33.33504,0.75762 -18.68937,0 -34.34519,2.45026 -34.34519,-0.75762 0,-3.20788 15.65582,-10.85914 34.34519,-10.85914 18.68938,0 33.33504,7.65126 33.33504,10.85914 z"
         id="path3991"
         inkscape:connector-curvature="0"
         sodipodi:nodetypes="sssss" />
    </g>
  </g>
</svg>
